<?xml version="1.0" encoding="utf-8"?>
<!-- Generator: Adobe Illustrator 26.3.1, SVG Export Plug-In . SVG Version: 6.00 Build 0)  -->
<svg version="1.1" id="daft-guy" xmlns="http://www.w3.org/2000/svg" xmlns:xlink="http://www.w3.org/1999/xlink" x="0px" y="0px"
	 viewBox="0 0 300 300" style="enable-background:new 0 0 300 300;" xml:space="preserve">
<style type="text/css">
	.st0{fill:#2C3B54;}
	.st1{opacity:0.18;enable-background:new    ;}
	.st2{fill:#E4A73F;}
	.st3{fill:#CC9739;}
	.st4{fill:#262626;}
	.st5{fill:#E8B443;}
	.st6{fill:#FFC64A;}
	.st7{fill:#424242;}
	.st8{fill:#FFFFFF;}
</style>
<circle id="bg-circle" class="st0" cx="150" cy="150" r="150"/>
<path id="shadow" class="st1" d="M299.03,167.11c-7.78,68.55-61.78,123.09-130.08,131.7l-53.91-53.91c-0.77-0.66-1.5-1.39-2.17-2.17
	l-19.43-22.55c-5.14-5.96-9.04-12.82-11.53-20.18c-0.66,0.61-1.52,1.01-2.49,1.07c-5.65,0.36-10.51-3.93-10.86-9.56l-3.9-61.94
	c-0.35-5.46,3.67-10.2,9.05-10.82c2.15-20.11,11.95-38.91,28.02-51.8c13.22-10.61,30-16.95,48.26-16.95s35.04,6.34,48.26,16.95
	c2.1,1.68,4.08,3.46,5.96,5.34l0.71,0.71L299.03,167.11z"/>
<g id="daft-guy-face">
	<path class="st2" d="M226.29,135.42l-5.33,51.35c-0.46,4.43-1.4,8.78-2.81,12.97c-2.49,7.47-6.42,14.42-11.61,20.44l-19.43,22.55
		c-3.98,4.62-9.77,7.27-15.86,7.27h-42.52c-5.06,0-9.91-1.83-13.69-5.1c-0.77-0.66-1.5-1.39-2.17-2.17l-19.43-22.55
		c-5.14-5.96-9.04-12.82-11.53-20.18c-1.45-4.27-2.42-8.7-2.89-13.23l-5.33-51.35c-0.58-5.59-0.56-11.18,0.02-16.67
		c2.15-20.11,11.95-38.91,28.02-51.8c13.22-10.61,30-16.95,48.26-16.95s35.04,6.34,48.26,16.95c2.1,1.68,4.08,3.46,5.96,5.34
		l0.71,0.71c12.08,12.36,19.48,28.51,21.34,45.62C226.85,124.15,226.88,129.78,226.29,135.42z"/>
	<g id="ear">
		<path class="st3" d="M220.97,200.99L220.97,200.99c-2.44-0.15-4.3-2.26-4.15-4.71l4.63-73.52c0.15-2.44,2.26-4.3,4.71-4.15l0,0
			c5.42,0.34,9.54,5.01,9.19,10.43l-3.95,62.75C231.05,197.22,226.38,201.33,220.97,200.99z"/>
		<path class="st3" d="M83.19,196.8c0.08,1.25-0.42,2.41-1.28,3.2c-0.66,0.61-1.52,1.01-2.49,1.07c-5.65,0.36-10.51-3.93-10.86-9.56
			l-3.9-61.94c-0.35-5.46,3.67-10.2,9.05-10.82c0.17-0.01,0.34-0.03,0.52-0.04l0.43-0.03c1.12-0.07,2.16,0.38,2.86,1.14
			c0.55,0.59,0.91,1.36,0.96,2.22l3.18,50.42L83.19,196.8z"/>
	</g>
	<path id="goggle" class="st4" d="M149.17,65.03c-33.86,0.44-60.79,28.66-60.79,62.52v40.44c0,17.5,14.19,31.68,31.68,31.68h59.85
		c17.5,0,31.68-14.19,31.68-31.68v-41.35C211.6,92.33,183.57,64.58,149.17,65.03z"/>
	<path id="mouth" class="st5" d="M168.64,250h-37.31c-9.75,0-17.66-7.91-17.66-17.66l0,0c0-9.75,7.91-17.66,17.66-17.66h37.31
		c9.75,0,17.66,7.91,17.66,17.66l0,0C186.3,242.09,178.4,250,168.64,250z"/>
	<g id="face-light">
		<path class="st6" d="M216.49,172.55L216.49,172.55c-2.88-0.18-5.07-2.66-4.89-5.54l2.73-43.28c0.18-2.88,2.66-5.07,5.54-4.89l0,0
			c2.88,0.18,5.07,2.66,4.89,5.54l-2.73,43.28C221.85,170.54,219.37,172.73,216.49,172.55z"/>
		<path class="st6" d="M83.48,172.66L83.48,172.66c2.88-0.18,5.07-2.66,4.89-5.54l-2.73-43.28c-0.18-2.88-2.66-5.07-5.54-4.89l0,0
			c-2.88,0.18-5.07,2.66-4.89,5.54l2.73,43.28C78.12,170.65,80.6,172.84,83.48,172.66z"/>
	</g>
	<g id="goggle-light">
		<path class="st7" d="M204.61,126.69c-3.14,0-5.8-2.38-6.03-5.5c-1.86-24.83-23.22-44.29-48.65-44.29
			c-18.65,0-35.39,10.18-43.7,26.56c-1.49,2.94-5.12,4.13-8.12,2.67c-2.99-1.46-4.21-5.02-2.72-7.96
			c10.37-20.44,31.27-33.14,54.54-33.14c31.73,0,58.41,24.29,60.72,55.29c0.24,3.27-2.26,6.12-5.6,6.36
			C204.91,126.68,204.76,126.69,204.61,126.69z"/>
	</g>
	<path id="goggle-shadow" d="M177.88,199.67h-58.73c-12.81,0-25.17-9.89-29.18-21.64c-0.74-2.15,0.87-4.39,3.15-4.39l0,0l0,0h110.79
		l0,0c3.84,0,6.35,3.98,4.74,7.47C203.9,191.43,193.77,199.67,177.88,199.67z"/>
	<circle id="goggle-reflect" class="st8" cx="175.13" cy="99.55" r="6.05"/>
</g>
</svg>
