<?xml version="1.0" encoding="UTF-8"?><svg id="daft-thomas" xmlns="http://www.w3.org/2000/svg" viewBox="0 0 300 300"><defs><style>.cls-1{fill:#fff;}.cls-2{fill:#abbdd1;}.cls-3{fill:#899ab2;}.cls-4{fill:#70839c;}.cls-5{fill:#2c3b54;}.cls-6{fill:#627491;}.cls-7{isolation:isolate;opacity:.2;}</style></defs><circle id="bg-circle" class="cls-5" cx="150" cy="150" r="150"/><path id="shadow" class="cls-7" d="M299.01,167.26c-7.81,68.2-61.36,122.5-129.21,131.44l-51.12-51.12c-2.18-1.18-4.14-2.77-5.8-4.68l-19.43-22.55c-8.1-9.41-13.14-21.06-14.42-33.41l-1.36-13.11c-5.07-1.93-13.06-8.17-13.06-28.25,0-2.19,.09-4.27,.29-6.24,.03-.39,.07-.76,.12-1.13,.08-.74,.18-1.45,.3-2.15,.05-.35,.11-.69,.18-1.02,.06-.33,.12-.66,.19-.98,.06-.33,.14-.65,.22-.97,.02-.11,.04-.22,.07-.33,.01-.05,.03-.1,.05-.15,1.7-6.79,4.7-10.72,7.63-13.01,1.99-20.37,11.83-39.45,28.08-52.48,13.22-10.61,30-16.95,48.26-16.95s35.04,6.34,48.26,16.95c1.72,1.38,3.36,2.82,4.93,4.33l.52,.51,95.3,95.3Z"/><g id="thomas"><path class="cls-4" d="M226.72,126.99c.02,2.86-.12,5.73-.42,8.6l-.48,4.61-2.02,19.43-.89,8.66-.08,.73-.3,2.92-.2,1.9-1.36,13.1c-1.28,12.35-6.31,24-14.42,33.41l-19.43,22.55c-3.98,4.61-9.77,7.27-15.86,7.27h-42.52c-3.56,0-7.01-.91-10.06-2.59-2.18-1.18-4.14-2.77-5.8-4.68l-19.43-22.55c-8.1-9.41-13.14-21.06-14.42-33.41l-1.36-13.11-.58-5.54-.89-8.58-2.01-19.44h0l-.49-4.68c-.19-1.81-.32-3.62-.37-5.43-.04-1.06-.06-2.12-.05-3.17,0-2.48,.13-4.95,.38-7.39,1.99-20.37,11.83-39.45,28.08-52.48,13.22-10.61,30-16.95,48.26-16.95s35.04,6.34,48.26,16.95c1.72,1.38,3.36,2.82,4.93,4.33l.52,.51,1.4,1.4c12.17,12.53,19.54,28.91,21.23,46.24,.25,2.44,.38,4.91,.38,7.39Z"/><path id="forehead" class="cls-3" d="M191.44,108.4H108.55c-8.34,0-14.16-8.19-11.01-15.68,7.65-18.2,28.24-31.23,52.45-31.23s44.8,13.03,52.46,31.23c3.15,7.49-2.66,15.68-11.01,15.68Z"/><path id="chin" class="cls-3" d="M164.13,242.21h-28.51c-8.58,0-16.33-5.05-19.65-12.81l-16.76-39.1c-3.43-7.99,2.56-16.82,11.4-16.82h76.53c8.61,0,14.58,8.41,11.6,16.33l-14.6,38.74c-3.11,8.21-11.09,13.66-20.01,13.66Z"/><path id="mouth" d="M164.25,216.03h-28.49c-9.43,0-17.08-7.65-17.08-17.08h0c0-4.43,3.59-8.02,8.02-8.02h46.61c4.43,0,8.02,3.59,8.02,8.02h0c0,9.44-7.65,17.08-17.08,17.08Z"/><circle id="forehead-reflect" class="cls-1" cx="182.96" cy="83.85" r="5.36"/><g id="goggle"><path id="google-glass" d="M218.28,121.12H81.72s-12.45,0-12.45,24.45,12.45,24.45,12.45,24.45H218.28s12.45,0,12.45-24.45-12.45-24.45-12.45-24.45Z"/><path id="goggle-frame" class="cls-3" d="M226.34,119.6c-3.93-3.07-7.73-3.14-8.06-3.14H81.72c-.32,0-4.13,.07-8.06,3.14-2.93,2.29-5.93,6.22-7.63,13.01l-.12,.48c-.08,.32-.16,.64-.22,.97-.07,.32-.13,.65-.19,.98-.07,.33-.13,.67-.18,1.02-.12,.7-.22,1.41-.3,2.15-.05,.37-.09,.74-.12,1.13-.2,1.97-.29,4.05-.29,6.24,0,20.08,7.99,26.32,13.06,28.25,2.2,.84,3.84,.87,4.05,.87H218.28c.17,0,.34,0,.5-.02,.68-.06,1.97-.24,3.55-.84,5.06-1.93,13.06-8.16,13.06-28.26,0-15.26-4.61-22.53-9.05-25.98Zm-8.17,45.77H81.72s.02,0,.05,0c-.42-.08-1.93-.44-3.47-2.22-.69-.79-1.43-1.89-2.1-3.43-1.25-2.9-2.26-7.34-2.26-14.13,0-.94,.02-1.84,.06-2.7,.04-.87,.09-1.71,.18-2.53-.01-.03,0-.05,.01-.08h0c.02-.34,.06-.67,.1-.99,.04-.37,.09-.74,.14-1.09,1.35-9.16,5.15-12.16,7.4-12.4H218.17c.32,.05,1.9,.34,3.53,2.22,1.61,1.84,3.47,5.4,4.12,12.19,.15,1.61,.24,3.39,.24,5.38,0,6.47-.95,10.98-2.26,14.05-1.72,4.05-4.05,5.57-5.63,5.74Z"/><path id="goggle-shadow" class="cls-6" d="M222.83,169.02c-.04-.19-.1-.38-.17-.56-.64-1.8-2.36-3.09-4.38-3.09H81.72s.02,0,.05,0c-.42-.08-1.93-.44-3.47-2.22-.69-.79-1.43-1.89-2.1-3.43-1.25-2.9-2.26-7.34-2.26-14.13,0-.93,.02-1.83,.06-2.7s.09-1.71,.18-2.53c-.01-.03-.01-.06,.01-.09,.02-.33,.05-.66,.1-.98,.03-.37,.08-.73,.14-1.09,.16-1.13,.36-2.2,.61-3.2,.46-1.86-.27-3.74-1.71-4.83-.39-.31-.85-.55-1.34-.71-.12-.04-.24-.08-.36-.11-2.46-.6-4.93,.85-5.6,3.27-.02,.05-.04,.1-.05,.15-.03,.11-.05,.22-.07,.33-.08,.32-.16,.64-.22,.97-.07,.32-.13,.65-.19,.98-.07,.33-.13,.67-.18,1.02-.12,.7-.22,1.41-.3,2.15-.05,.37-.09,.74-.12,1.13-.2,1.97-.29,4.05-.29,6.24,0,20.08,7.99,26.32,13.06,28.25,2.2,.84,3.84,.87,4.05,.87H218.28c.17,0,.34,0,.5-.02,1.68-.19,3.09-1.26,3.75-2.74,.27-.58,.41-1.23,.41-1.91,0-.35-.04-.69-.11-1.01Z"/><path id="google-white-light" class="cls-1" d="M98.82,165.36h0c-3.14,0-5.68-2.54-5.68-5.68v-28.83c0-3.14,2.54-5.68,5.68-5.68h0c3.14,0,5.68,2.54,5.68,5.68v28.83c0,3.14-2.55,5.68-5.68,5.68Z"/><path id="goggle-blue-light" class="cls-2" d="M110.17,165.36h0c-3.14,0-5.68-2.54-5.68-5.68v-28.83c0-3.14,2.54-5.68,5.68-5.68h0c3.14,0,5.68,2.54,5.68,5.68v28.83c0,3.14-2.54,5.68-5.68,5.68Z"/></g></g></svg>