<?xml version="1.0" encoding="utf-8"?>
<!-- Generator: Adobe Illustrator 26.3.1, SVG Export Plug-In . SVG Version: 6.00 Build 0)  -->
<svg version="1.1" id="daft-thomas" xmlns="http://www.w3.org/2000/svg" xmlns:xlink="http://www.w3.org/1999/xlink" x="0px"
	 y="0px" viewBox="0 0 300 300" style="enable-background:new 0 0 300 300;" xml:space="preserve">
<style type="text/css">
	.st0{fill:#2C3B54;}
	.st1{opacity:0.2;enable-background:new    ;}
	.st2{fill:#70839C;}
	.st3{fill:#899AB2;}
	.st4{fill:#FFFFFF;}
	.st5{fill:#627491;}
	.st6{fill:#ABBDD1;}
</style>
<circle id="bg-circle" class="st0" cx="150" cy="150" r="150"/>
<path id="shadow" class="st1" d="M299.01,167.26c-7.81,68.2-61.36,122.5-129.21,131.44l-51.12-51.12c-2.18-1.18-4.14-2.77-5.8-4.68
	l-19.43-22.55c-8.1-9.41-13.14-21.06-14.42-33.41l-1.36-13.11c-5.07-1.93-13.06-8.17-13.06-28.25c0-2.19,0.09-4.27,0.29-6.24
	c0.03-0.39,0.07-0.76,0.12-1.13c0.08-0.74,0.18-1.45,0.3-2.15c0.05-0.35,0.11-0.69,0.18-1.02c0.06-0.33,0.12-0.66,0.19-0.98
	c0.06-0.33,0.14-0.65,0.22-0.97c0.02-0.11,0.04-0.22,0.07-0.33c0.01-0.05,0.03-0.1,0.05-0.15c1.7-6.79,4.7-10.72,7.63-13.01
	c1.99-20.37,11.83-39.45,28.08-52.48c13.22-10.61,30-16.95,48.26-16.95s35.04,6.34,48.26,16.95c1.72,1.38,3.36,2.82,4.93,4.33
	l0.52,0.51L299.01,167.26z"/>
<g id="thomas">
	<path class="st2" d="M226.72,126.99c0.02,2.86-0.12,5.73-0.42,8.6l-0.48,4.61l-2.02,19.43l-0.89,8.66l-0.08,0.73l-0.3,2.92
		l-0.2,1.9l-1.36,13.1c-1.28,12.35-6.31,24-14.42,33.41l-19.43,22.55c-3.98,4.61-9.77,7.27-15.86,7.27h-42.52
		c-3.56,0-7.01-0.91-10.06-2.59c-2.18-1.18-4.14-2.77-5.8-4.68l-19.43-22.55c-8.1-9.41-13.14-21.06-14.42-33.41l-1.36-13.11
		l-0.58-5.54l-0.89-8.58l-2.01-19.44v-0.01l-0.49-4.67c-0.19-1.81-0.32-3.62-0.37-5.43c-0.04-1.06-0.06-2.12-0.05-3.17
		c0-2.48,0.13-4.95,0.38-7.39c1.99-20.37,11.83-39.45,28.08-52.48c13.22-10.61,30-16.95,48.26-16.95s35.04,6.34,48.26,16.95
		c1.72,1.38,3.36,2.82,4.93,4.33l0.52,0.51l1.4,1.4c12.17,12.53,19.54,28.91,21.23,46.24C226.59,122.04,226.72,124.51,226.72,126.99
		z"/>
	<path id="forehead" class="st3" d="M191.44,108.4h-82.89c-8.34,0-14.16-8.19-11.01-15.68c7.65-18.2,28.24-31.23,52.45-31.23
		c24.2,0,44.8,13.03,52.46,31.23C205.6,100.21,199.79,108.4,191.44,108.4z"/>
	<path id="chin" class="st3" d="M164.13,242.21h-28.51c-8.58,0-16.33-5.05-19.65-12.81l-16.76-39.1
		c-3.43-7.99,2.56-16.82,11.4-16.82h76.53c8.61,0,14.58,8.41,11.6,16.33l-14.6,38.74C181.03,236.76,173.05,242.21,164.13,242.21z"/>
	<path id="mouth" d="M164.25,216.03h-28.49c-9.43,0-17.08-7.65-17.08-17.08l0,0c0-4.43,3.59-8.02,8.02-8.02h46.61
		c4.43,0,8.02,3.59,8.02,8.02l0,0C181.32,208.39,173.68,216.03,164.25,216.03z"/>
	<circle id="forehead-reflect" class="st4" cx="182.96" cy="83.85" r="5.36"/>
	<g id="goggle">
		<path id="google-glass" d="M218.28,121.12H150H81.72c0,0-12.45,0-12.45,24.45s12.45,24.45,12.45,24.45H150h68.28
			c0,0,12.45,0,12.45-24.45S218.28,121.12,218.28,121.12z"/>
		<path id="goggle-frame" class="st3" d="M226.34,119.6c-3.93-3.07-7.73-3.14-8.06-3.14H81.72c-0.32,0-4.13,0.07-8.06,3.14
			c-2.93,2.29-5.93,6.22-7.63,13.01c-0.04,0.16-0.08,0.32-0.12,0.48c-0.08,0.32-0.16,0.64-0.22,0.97c-0.07,0.32-0.13,0.65-0.19,0.98
			c-0.07,0.33-0.13,0.67-0.18,1.02c-0.12,0.7-0.22,1.41-0.3,2.15c-0.05,0.37-0.09,0.74-0.12,1.13c-0.2,1.97-0.29,4.05-0.29,6.24
			c0,20.08,7.99,26.32,13.06,28.25c2.2,0.84,3.84,0.87,4.05,0.87h136.56c0.17,0,0.34-0.01,0.5-0.02c0.68-0.06,1.97-0.24,3.55-0.84
			c5.06-1.93,13.06-8.16,13.06-28.26C235.39,130.32,230.78,123.05,226.34,119.6z M218.17,165.37H81.85c-0.01,0-0.01,0-0.02,0h-0.11
			c0,0,0.02-0.01,0.05-0.01c-0.42-0.08-1.93-0.44-3.47-2.22c-0.69-0.79-1.43-1.89-2.1-3.43c-1.25-2.9-2.26-7.34-2.26-14.13
			c0-0.94,0.02-1.84,0.06-2.7c0.04-0.87,0.09-1.71,0.18-2.53c-0.01-0.03,0-0.05,0.01-0.08v-0.01c0.02-0.33,0.06-0.66,0.1-0.98
			c0.04-0.37,0.09-0.74,0.14-1.09c1.35-9.16,5.15-12.16,7.4-12.4c0.01,0,0.01,0,0.02,0h136.3c0.01,0,0.01,0,0.02,0
			c0.32,0.05,1.9,0.34,3.53,2.22c1.61,1.84,3.47,5.4,4.12,12.19c0.15,1.61,0.24,3.39,0.24,5.38c0,6.47-0.95,10.98-2.26,14.05
			C222.08,163.68,219.75,165.2,218.17,165.37z"/>
		<path id="goggle-shadow" class="st5" d="M222.83,169.02c-0.04-0.19-0.1-0.38-0.17-0.56c-0.64-1.8-2.36-3.09-4.38-3.09H81.85
			c-0.01,0-0.01,0-0.02,0h-0.11c0,0,0.02-0.01,0.05-0.01c-0.42-0.08-1.93-0.44-3.47-2.22c-0.69-0.79-1.43-1.89-2.1-3.43
			c-1.25-2.9-2.26-7.34-2.26-14.13c0-0.93,0.02-1.83,0.06-2.7s0.09-1.71,0.18-2.53c-0.01-0.03-0.01-0.06,0.01-0.09
			c0.02-0.33,0.05-0.66,0.1-0.98c0.03-0.37,0.08-0.73,0.14-1.09c0.16-1.13,0.36-2.2,0.61-3.2c0.46-1.86-0.27-3.74-1.71-4.83
			c-0.39-0.31-0.85-0.55-1.34-0.71c-0.12-0.04-0.24-0.08-0.36-0.11c-2.46-0.6-4.93,0.85-5.6,3.27c-0.02,0.05-0.04,0.1-0.05,0.15
			c-0.03,0.11-0.05,0.22-0.07,0.33c-0.08,0.32-0.16,0.64-0.22,0.97c-0.07,0.32-0.13,0.65-0.19,0.98c-0.07,0.33-0.13,0.67-0.18,1.02
			c-0.12,0.7-0.22,1.41-0.3,2.15c-0.05,0.37-0.09,0.74-0.12,1.13c-0.2,1.97-0.29,4.05-0.29,6.24c0,20.08,7.99,26.32,13.06,28.25
			c2.2,0.84,3.84,0.87,4.05,0.87h136.56c0.17,0,0.34-0.01,0.5-0.02c1.68-0.19,3.09-1.26,3.75-2.74c0.27-0.58,0.41-1.23,0.41-1.91
			C222.94,169.68,222.9,169.34,222.83,169.02z"/>
		<path id="google-white-light" class="st4" d="M98.82,165.36L98.82,165.36c-3.14,0-5.68-2.54-5.68-5.68v-28.83
			c0-3.14,2.54-5.68,5.68-5.68l0,0c3.14,0,5.68,2.54,5.68,5.68v28.83C104.5,162.82,101.95,165.36,98.82,165.36z"/>
		<path id="goggle-blue-light" class="st6" d="M110.17,165.36L110.17,165.36c-3.14,0-5.68-2.54-5.68-5.68v-28.83
			c0-3.14,2.54-5.68,5.68-5.68l0,0c3.14,0,5.68,2.54,5.68,5.68v28.83C115.85,162.82,113.31,165.36,110.17,165.36z"/>
	</g>
</g>
</svg>
