<?xml version="1.0" encoding="UTF-8"?><svg id="daft-guy" xmlns="http://www.w3.org/2000/svg" viewBox="0 0 300 300"><defs><style>.cls-1{fill:#e8b443;}.cls-2{fill:#e4a73f;}.cls-3{fill:#fff;}.cls-4{fill:#ffc64a;}.cls-5{fill:#cc9739;}.cls-6{fill:#424242;}.cls-7{fill:#2c3b54;}.cls-8{fill:#262626;}.cls-9{isolation:isolate;opacity:.18;}</style></defs><circle id="bg-circle" class="cls-7" cx="150" cy="150" r="150"/><path id="shadow" class="cls-9" d="M299.03,167.11c-7.78,68.55-61.78,123.09-130.08,131.7l-53.91-53.91c-.77-.66-1.5-1.39-2.17-2.17l-19.43-22.55c-5.14-5.96-9.04-12.82-11.53-20.18-.66,.61-1.52,1.01-2.49,1.07-5.65,.36-10.51-3.93-10.86-9.56l-3.9-61.94c-.35-5.46,3.67-10.2,9.05-10.82,2.15-20.11,11.95-38.91,28.02-51.8,13.22-10.61,30-16.95,48.26-16.95s35.04,6.34,48.26,16.95c2.1,1.68,4.08,3.46,5.96,5.34l.71,.71,94.11,94.11Z"/><g id="daft-guy-face"><path class="cls-2" d="M226.29,135.42l-5.33,51.35c-.46,4.43-1.4,8.78-2.81,12.97-2.49,7.47-6.42,14.42-11.61,20.44l-19.43,22.55c-3.98,4.62-9.77,7.27-15.86,7.27h-42.52c-5.06,0-9.91-1.83-13.69-5.1-.77-.66-1.5-1.39-2.17-2.17l-19.43-22.55c-5.14-5.96-9.04-12.82-11.53-20.18-1.45-4.27-2.42-8.7-2.89-13.23l-5.33-51.35c-.58-5.59-.56-11.18,.02-16.67,2.15-20.11,11.95-38.91,28.02-51.8,13.22-10.61,30-16.95,48.26-16.95s35.04,6.34,48.26,16.95c2.1,1.68,4.08,3.46,5.96,5.34l.71,.71c12.08,12.36,19.48,28.51,21.34,45.62,.59,5.53,.62,11.16,.03,16.8Z"/><g id="ear"><path class="cls-5" d="M220.97,200.99h0c-2.44-.15-4.3-2.26-4.15-4.71l4.63-73.52c.15-2.44,2.26-4.3,4.71-4.15h0c5.42,.34,9.54,5.01,9.19,10.43l-3.95,62.75c-.35,5.43-5.02,9.54-10.43,9.2Z"/><path class="cls-5" d="M83.19,196.8c.08,1.25-.42,2.41-1.28,3.2-.66,.61-1.52,1.01-2.49,1.07-5.65,.36-10.51-3.93-10.86-9.56l-3.9-61.94c-.35-5.46,3.67-10.2,9.05-10.82,.17-.01,.34-.03,.52-.04l.43-.03c1.12-.07,2.16,.38,2.86,1.14,.55,.59,.91,1.36,.96,2.22l3.18,50.42,1.53,24.34Z"/></g><path id="goggle" class="cls-8" d="M149.17,65.03c-33.86,.44-60.79,28.66-60.79,62.52v40.44c0,17.5,14.19,31.68,31.68,31.68h59.85c17.5,0,31.68-14.19,31.68-31.68v-41.35c.01-34.31-28.02-62.06-62.42-61.61Z"/><path id="mouth" class="cls-1" d="M168.64,250h-37.31c-9.75,0-17.66-7.91-17.66-17.66h0c0-9.75,7.91-17.66,17.66-17.66h37.31c9.75,0,17.66,7.91,17.66,17.66h0c0,9.75-7.9,17.66-17.66,17.66Z"/><g id="face-light"><path class="cls-4" d="M216.49,172.55h0c-2.88-.18-5.07-2.66-4.89-5.54l2.73-43.28c.18-2.88,2.66-5.07,5.54-4.89h0c2.88,.18,5.07,2.66,4.89,5.54l-2.73,43.28c-.18,2.88-2.66,5.07-5.54,4.89Z"/><path class="cls-4" d="M83.48,172.66h0c2.88-.18,5.07-2.66,4.89-5.54l-2.73-43.28c-.18-2.88-2.66-5.07-5.54-4.89h0c-2.88,.18-5.07,2.66-4.89,5.54l2.73,43.28c.18,2.88,2.66,5.07,5.54,4.89Z"/></g><g id="goggle-light"><path class="cls-6" d="M204.61,126.69c-3.14,0-5.8-2.38-6.03-5.5-1.86-24.83-23.22-44.29-48.65-44.29-18.65,0-35.39,10.18-43.7,26.56-1.49,2.94-5.12,4.13-8.12,2.67-2.99-1.46-4.21-5.02-2.72-7.96,10.37-20.44,31.27-33.14,54.54-33.14,31.73,0,58.41,24.29,60.72,55.29,.24,3.27-2.26,6.12-5.6,6.36-.14,0-.29,.01-.44,.01Z"/></g><path id="goggle-shadow" d="M177.88,199.67h-58.73c-12.81,0-25.17-9.89-29.18-21.64-.74-2.15,.87-4.39,3.15-4.39h110.79c3.84,0,6.35,3.98,4.74,7.47-4.75,10.32-14.88,18.56-30.77,18.56Z"/><circle id="goggle-reflect" class="cls-3" cx="175.13" cy="99.55" r="6.05"/></g></svg>