<?xml version="1.0" encoding="utf-8"?>
<!-- Generator: Adobe Illustrator 26.3.1, SVG Export Plug-In . SVG Version: 6.00 Build 0)  -->
<svg version="1.1" id="earth" xmlns="http://www.w3.org/2000/svg" xmlns:xlink="http://www.w3.org/1999/xlink" x="0px" y="0px"
	 viewBox="0 0 300 300" enable-background="new 0 0 300 300" xml:space="preserve">
<circle id="bg-circle" fill="#2C3B54" cx="150" cy="150" r="150"/>
<path id="shadow" opacity="0.15" d="M299.68,159.88c-4.87,74.88-64.69,134.78-139.53,139.78l-70.68-70.68
	c-10.75-8.08-19.81-18.27-26.58-29.96c-2.79-4.82-5.19-9.91-7.16-15.21C51.7,172.97,49.5,161.24,49.5,149
	c0-25.14,9.29-48.13,24.61-65.7C92.45,62.28,119.42,49,149.5,49c4.9,0,9.72,0.35,14.44,1.04c2.28,0.33,4.54,0.74,6.78,1.22
	c0.35,0.08,0.7,0.15,1.06,0.23c0.36,0.08,0.73,0.17,1.09,0.26c0.39,0.09,0.78,0.19,1.17,0.29c0.55,0.14,1.1,0.28,1.65,0.43
	c0.42,0.11,0.84,0.23,1.26,0.35c0.4,0.11,0.79,0.22,1.18,0.34c2.98,0.89,5.9,1.91,8.76,3.07c0.46,0.18,0.91,0.37,1.36,0.56
	c0.3,0.12,0.6,0.25,0.89,0.38c0.49,0.21,0.97,0.42,1.46,0.64c2.97,1.34,5.86,2.82,8.66,4.43c0.53,0.31,1.07,0.62,1.6,0.94
	c0.55,0.33,1.09,0.66,1.63,1c1,0.63,1.99,1.27,2.97,1.93c0.5,0.34,1,0.69,1.49,1.03l0.02,0.02c1.1,0.77,2.19,1.57,3.26,2.39
	c0.47,0.36,0.93,0.71,1.38,1.08c0.45,0.35,0.89,0.71,1.33,1.06c0.11,0.1,0.21,0.19,0.32,0.27c0.41,0.34,0.83,0.69,1.23,1.04
	c0.48,0.41,0.95,0.81,1.41,1.23c1.38,1.23,2.72,2.49,4.03,3.79c0.4,0.38,0.78,0.77,1.17,1.17c1.22,1.26,2.42,2.55,3.57,3.87
	c0.3,0.33,0.59,0.67,0.88,1.01c0.36,0.42,0.71,0.84,1.06,1.26c0.39,0.48,0.78,0.95,1.16,1.43c0.3,0.38,0.61,0.77,0.91,1.16
	c0.91,1.18,1.79,2.38,2.65,3.6l0.01,0.01L299.68,159.88z"/>
<g id="earth_00000026867100957897938810000007469578262605452964_">
	<path fill="#2E2DAA" d="M249.5,149c0,22.92-7.72,44.06-20.7,60.93C210.52,233.69,181.79,249,149.5,249
		c-16.36,0-31.8-3.93-45.44-10.9c-0.54-0.27-1.07-0.55-1.6-0.84c-0.49-0.26-0.98-0.53-1.46-0.8c-0.67-0.36-1.33-0.73-1.98-1.12
		c-0.4-0.24-0.79-0.47-1.18-0.71c-0.1-0.05-0.19-0.1-0.28-0.17c-0.45-0.27-0.9-0.55-1.34-0.83c-1.74-1.08-3.44-2.23-5.1-3.44
		c-0.55-0.39-1.1-0.8-1.65-1.21c-10.75-8.08-19.81-18.27-26.58-29.96c-2.79-4.82-5.19-9.91-7.16-15.21
		C51.7,172.97,49.5,161.24,49.5,149c0-25.14,9.29-48.13,24.61-65.7C92.45,62.28,119.42,49,149.5,49c4.9,0,9.72,0.35,14.44,1.04
		c2.28,0.33,4.54,0.74,6.78,1.22c0.35,0.08,0.7,0.15,1.06,0.23c0.36,0.08,0.73,0.17,1.09,0.26c0.39,0.09,0.78,0.19,1.17,0.29
		c0.55,0.14,1.1,0.28,1.65,0.43c0.42,0.11,0.84,0.23,1.26,0.35c0.4,0.11,0.79,0.22,1.18,0.34c2.98,0.89,5.9,1.91,8.76,3.07
		c0.46,0.18,0.91,0.37,1.36,0.56c0.3,0.12,0.6,0.25,0.89,0.38c0.49,0.21,0.97,0.42,1.46,0.64c2.97,1.34,5.86,2.82,8.66,4.43
		c0.53,0.31,1.07,0.62,1.6,0.94c0.55,0.33,1.09,0.66,1.63,1c1,0.63,1.99,1.27,2.97,1.93c0.5,0.34,1,0.69,1.49,1.03l0.02,0.02
		c1.1,0.77,2.19,1.57,3.26,2.39c0.47,0.36,0.93,0.71,1.38,1.08c0.45,0.35,0.89,0.71,1.33,1.06c0.11,0.1,0.21,0.19,0.32,0.27
		c0.41,0.34,0.83,0.69,1.23,1.04c0.48,0.41,0.95,0.81,1.41,1.23c1.38,1.23,2.72,2.49,4.03,3.79c0.4,0.38,0.78,0.77,1.17,1.17
		c1.22,1.26,2.42,2.55,3.57,3.87c0.3,0.33,0.59,0.67,0.88,1.01c0.36,0.42,0.71,0.84,1.06,1.26c0.39,0.48,0.78,0.95,1.16,1.43
		c0.3,0.38,0.61,0.77,0.91,1.16c0.91,1.18,1.79,2.38,2.65,3.6l0.01,0.01c0.41,0.58,0.81,1.17,1.21,1.76
		c0.29,0.43,0.58,0.87,0.87,1.31c2.27,3.5,4.32,7.14,6.15,10.92c0.2,0.42,0.4,0.84,0.6,1.26c0.42,0.89,0.82,1.8,1.22,2.71
		c0.19,0.46,0.39,0.93,0.58,1.39c0.43,1.04,0.84,2.08,1.23,3.13C247.28,124.9,249.5,136.69,249.5,149z"/>
	<path fill="#58BD78" d="M132.93,164.27c0,10.79-8.75,19.54-19.55,19.54H55.73C51.7,172.97,49.5,161.24,49.5,149
		c0-25.14,9.29-48.13,24.61-65.7h25.47c1.89,0,3.7,0.27,5.42,0.77c3.22,0.92,6.09,2.65,8.39,4.95c3.54,3.54,5.72,8.43,5.72,13.82
		c0,10.79-8.74,19.54-19.53,19.54h-2.83c-3.09,0-5.88,1.25-7.9,3.27c-2.02,2.02-3.28,4.82-3.28,7.91c0,6.17,5.01,11.17,11.18,11.17
		h16.63c5.4,0,10.29,2.19,13.82,5.72C130.74,153.99,132.93,158.88,132.93,164.27z"/>
	<path fill="#58BD78" d="M132.93,218.57c0,2.71-0.55,5.28-1.55,7.63c-0.99,2.32-2.42,4.42-4.18,6.18
		c-3.53,3.54-8.42,5.72-13.82,5.72h-9.32c-0.54-0.27-1.07-0.55-1.6-0.84c-0.49-0.26-0.98-0.53-1.46-0.8
		c-0.67-0.36-1.33-0.73-1.98-1.12c-0.4-0.24-0.79-0.47-1.18-0.71c-0.1-0.05-0.19-0.1-0.28-0.17c-0.45-0.27-0.9-0.55-1.34-0.83
		c-1.74-1.08-3.44-2.23-5.1-3.44c-0.55-0.39-1.1-0.8-1.65-1.21c-10.75-8.08-19.81-18.27-26.58-29.96h50.49
		C124.18,199.02,132.93,207.77,132.93,218.57z"/>
	<path fill="#58BD78" d="M249.5,149c0,22.92-7.72,44.06-20.7,60.93h-14.62c-5.4,0-10.28-2.18-13.82-5.72
		c-3.54-3.53-5.72-8.42-5.72-13.81c0-8.02,4.83-14.91,11.74-17.92c3.18-1.38,5.17-4.59,5.17-8.05v-2.47c0-4.89-3.97-8.87-8.86-8.87
		h-5.41c-5.39,0-10.28-2.19-13.82-5.72c-3.53-3.53-5.72-8.42-5.72-13.81c0-10.79,8.75-19.54,19.54-19.54h45.93
		C247.28,124.9,249.5,136.69,249.5,149z"/>
	<path opacity="0.1" d="M249.5,149c0,22.92-7.72,44.06-20.7,60.93C210.52,233.69,181.79,249,149.5,249
		c-16.36,0-31.8-3.93-45.44-10.9c-0.54-0.27-1.07-0.55-1.6-0.84c-0.49-0.26-0.98-0.53-1.46-0.8c-0.67-0.36-1.33-0.73-1.98-1.12
		c-0.4-0.24-0.79-0.47-1.18-0.71c-0.1-0.05-0.19-0.1-0.28-0.17c-0.45-0.27-0.9-0.55-1.34-0.83c-1.74-1.08-3.44-2.23-5.1-3.44
		c-0.55-0.39-1.1-0.8-1.65-1.21c4.72,0.69,9.54,1.04,14.45,1.04c9.52,0,18.74-1.33,27.46-3.82c20.87-5.95,38.95-18.5,51.84-35.25
		c8.49-11.03,14.72-23.88,18.02-37.86c1.75-7.41,2.68-15.13,2.68-23.07c0-5.46-0.44-10.8-1.28-16.01
		c-1.06-6.56-2.75-12.9-5.02-18.97c-6.74-18.05-18.54-33.63-33.68-45c2.28,0.33,4.54,0.74,6.78,1.22c0.35,0.08,0.7,0.15,1.06,0.23
		c0.36,0.08,0.73,0.17,1.09,0.26c0.39,0.09,0.78,0.19,1.17,0.29c0.55,0.14,1.1,0.28,1.65,0.43c0.42,0.11,0.84,0.23,1.26,0.35
		c0.4,0.11,0.79,0.22,1.18,0.34c2.98,0.89,5.9,1.91,8.76,3.07c0.46,0.18,0.91,0.37,1.36,0.56c0.3,0.12,0.6,0.25,0.89,0.38
		c0.49,0.21,0.97,0.42,1.46,0.64c2.97,1.34,5.86,2.82,8.66,4.43c0.53,0.31,1.07,0.62,1.6,0.94c0.55,0.33,1.09,0.66,1.63,1
		c1,0.63,1.99,1.27,2.97,1.93c0.5,0.34,1,0.69,1.49,1.03l0.02,0.02c1.1,0.77,2.19,1.57,3.26,2.39c0.47,0.36,0.93,0.71,1.38,1.08
		c0.45,0.35,0.89,0.71,1.33,1.06c0.11,0.1,0.21,0.19,0.32,0.27c0.41,0.34,0.83,0.69,1.23,1.04c0.48,0.41,0.95,0.81,1.41,1.23
		c1.38,1.23,2.72,2.49,4.03,3.79c0.4,0.38,0.78,0.77,1.17,1.17c1.22,1.26,2.42,2.55,3.57,3.87c0.3,0.33,0.59,0.67,0.88,1.01
		c0.36,0.42,0.71,0.84,1.06,1.26c0.39,0.48,0.78,0.95,1.16,1.43c0.3,0.38,0.61,0.77,0.91,1.16c0.91,1.18,1.79,2.38,2.65,3.6
		l0.01,0.01c0.41,0.58,0.81,1.17,1.21,1.76c0.29,0.43,0.58,0.87,0.87,1.31c2.27,3.5,4.32,7.14,6.15,10.92
		c0.2,0.42,0.4,0.84,0.6,1.26c0.42,0.89,0.82,1.8,1.22,2.71c0.19,0.46,0.39,0.93,0.58,1.39c0.43,1.04,0.84,2.08,1.23,3.13
		C247.28,124.9,249.5,136.69,249.5,149z"/>
	<path opacity="0.21" fill="none" stroke="#FFFFFF" stroke-width="7" stroke-linecap="round" stroke-miterlimit="10" d="
		M139.22,67.14c-8.32,2.16-28.56,8.63-45.65,27.62C72.3,118.38,70.22,145.5,69.9,153.37"/>
</g>
</svg>
