<?xml version="1.0" encoding="UTF-8"?><svg id="earth" xmlns="http://www.w3.org/2000/svg" viewBox="0 0 300 300"><defs><style>.cls-1{fill:#58bd78;}.cls-2{fill:#2c3b54;}.cls-3{fill:#2e2daa;}.cls-4{opacity:.1;}.cls-4,.cls-5,.cls-6{isolation:isolate;}.cls-5{opacity:.15;}.cls-6{fill:none;opacity:.21;stroke:#fff;stroke-linecap:round;stroke-miterlimit:10;stroke-width:7px;}</style></defs><circle id="bg-circle" class="cls-2" cx="150" cy="150" r="150"/><path id="shadow" class="cls-5" d="M299.68,159.88c-4.87,74.88-64.69,134.78-139.53,139.78l-70.68-70.68c-10.75-8.08-19.81-18.27-26.58-29.96-2.79-4.82-5.19-9.91-7.16-15.21-4.03-10.84-6.23-22.57-6.23-34.81,0-25.14,9.29-48.13,24.61-65.7,18.34-21.02,45.31-34.3,75.39-34.3,4.9,0,9.72,.35,14.44,1.04,2.28,.33,4.54,.74,6.78,1.22,.35,.08,.7,.15,1.06,.23,.36,.08,.73,.17,1.09,.26,.39,.09,.78,.19,1.17,.29,.55,.14,1.1,.28,1.65,.43,.42,.11,.84,.23,1.26,.35,.4,.11,.79,.22,1.18,.34,2.98,.89,5.9,1.91,8.76,3.07,.46,.18,.91,.37,1.36,.56,.3,.12,.6,.25,.89,.38,.49,.21,.97,.42,1.46,.64,2.97,1.34,5.86,2.82,8.66,4.43,.53,.31,1.07,.62,1.6,.94,.55,.33,1.09,.66,1.63,1,1,.63,1.99,1.27,2.97,1.93,.5,.34,1,.69,1.49,1.03l.02,.02c1.1,.77,2.19,1.57,3.26,2.39,.47,.36,.93,.71,1.38,1.08,.45,.35,.89,.71,1.33,1.06,.11,.1,.21,.19,.32,.27,.41,.34,.83,.69,1.23,1.04,.48,.41,.95,.81,1.41,1.23,1.38,1.23,2.72,2.49,4.03,3.79,.4,.38,.78,.77,1.17,1.17,1.22,1.26,2.42,2.55,3.57,3.87,.3,.33,.59,.67,.88,1.01,.36,.42,.71,.84,1.06,1.26,.39,.48,.78,.95,1.16,1.43,.3,.38,.61,.77,.91,1.16,.91,1.18,1.79,2.38,2.65,3.6h0l68.34,68.36Z"/><g id="earth-2"><path class="cls-3" d="M249.5,149c0,22.92-7.72,44.06-20.7,60.93-18.28,23.76-47.01,39.07-79.3,39.07-16.36,0-31.8-3.93-45.44-10.9-.54-.27-1.07-.55-1.6-.84-.49-.26-.98-.53-1.46-.8-.67-.36-1.33-.73-1.98-1.12-.4-.24-.79-.47-1.18-.71-.1-.05-.19-.1-.28-.17-.45-.27-.9-.55-1.34-.83-1.74-1.08-3.44-2.23-5.1-3.44-.55-.39-1.1-.8-1.65-1.21-10.75-8.08-19.81-18.27-26.58-29.96-2.79-4.82-5.19-9.91-7.16-15.21-4.03-10.84-6.23-22.57-6.23-34.81,0-25.14,9.29-48.13,24.61-65.7,18.34-21.02,45.31-34.3,75.39-34.3,4.9,0,9.72,.35,14.44,1.04,2.28,.33,4.54,.74,6.78,1.22,.35,.08,.7,.15,1.06,.23,.36,.08,.73,.17,1.09,.26,.39,.09,.78,.19,1.17,.29,.55,.14,1.1,.28,1.65,.43,.42,.11,.84,.23,1.26,.35,.4,.11,.79,.22,1.18,.34,2.98,.89,5.9,1.91,8.76,3.07,.46,.18,.91,.37,1.36,.56,.3,.12,.6,.25,.89,.38,.49,.21,.97,.42,1.46,.64,2.97,1.34,5.86,2.82,8.66,4.43,.53,.31,1.07,.62,1.6,.94,.55,.33,1.09,.66,1.63,1,1,.63,1.99,1.27,2.97,1.93,.5,.34,1,.69,1.49,1.03l.02,.02c1.1,.77,2.19,1.57,3.26,2.39,.47,.36,.93,.71,1.38,1.08,.45,.35,.89,.71,1.33,1.06,.11,.1,.21,.19,.32,.27,.41,.34,.83,.69,1.23,1.04,.48,.41,.95,.81,1.41,1.23,1.38,1.23,2.72,2.49,4.03,3.79,.4,.38,.78,.77,1.17,1.17,1.22,1.26,2.42,2.55,3.57,3.87,.3,.33,.59,.67,.88,1.01,.36,.42,.71,.84,1.06,1.26,.39,.48,.78,.95,1.16,1.43,.3,.38,.61,.77,.91,1.16,.91,1.18,1.79,2.38,2.65,3.6h0c.41,.59,.81,1.18,1.21,1.77,.29,.43,.58,.87,.87,1.31,2.27,3.5,4.32,7.14,6.15,10.92l.6,1.26c.42,.89,.82,1.8,1.22,2.71,.19,.46,.39,.93,.58,1.39,.43,1.04,.84,2.08,1.23,3.13,4.08,10.89,6.3,22.68,6.3,34.99Z"/><path class="cls-1" d="M132.93,164.27c0,10.79-8.75,19.54-19.55,19.54H55.73c-4.03-10.84-6.23-22.57-6.23-34.81,0-25.14,9.29-48.13,24.61-65.7h25.47c1.89,0,3.7,.27,5.42,.77,3.22,.92,6.09,2.65,8.39,4.95,3.54,3.54,5.72,8.43,5.72,13.82,0,10.79-8.74,19.54-19.53,19.54h-2.83c-3.09,0-5.88,1.25-7.9,3.27-2.02,2.02-3.28,4.82-3.28,7.91,0,6.17,5.01,11.17,11.18,11.17h16.63c5.4,0,10.29,2.19,13.82,5.72s5.73,8.43,5.73,13.82Z"/><path class="cls-1" d="M132.93,218.57c0,2.71-.55,5.28-1.55,7.63-.99,2.32-2.42,4.42-4.18,6.18-3.53,3.54-8.42,5.72-13.82,5.72h-9.32c-.54-.27-1.07-.55-1.6-.84-.49-.26-.98-.53-1.46-.8-.67-.36-1.33-.73-1.98-1.12-.4-.24-.79-.47-1.18-.71-.1-.05-.19-.1-.28-.17-.45-.27-.9-.55-1.34-.83-1.74-1.08-3.44-2.23-5.1-3.44-.55-.39-1.1-.8-1.65-1.21-10.75-8.08-19.81-18.27-26.58-29.96h50.49c10.8,0,19.55,8.75,19.55,19.55Z"/><path class="cls-1" d="M249.5,149c0,22.92-7.72,44.06-20.7,60.93h-14.62c-5.4,0-10.28-2.18-13.82-5.72-3.54-3.53-5.72-8.42-5.72-13.81,0-8.02,4.83-14.91,11.74-17.92,3.18-1.38,5.17-4.59,5.17-8.05v-2.47c0-4.89-3.97-8.87-8.86-8.87h-5.41c-5.39,0-10.28-2.19-13.82-5.72-3.53-3.53-5.72-8.42-5.72-13.81,0-10.79,8.75-19.54,19.54-19.54h45.93c4.07,10.88,6.29,22.67,6.29,34.98Z"/><path class="cls-4" d="M249.5,149c0,22.92-7.72,44.06-20.7,60.93-18.28,23.76-47.01,39.07-79.3,39.07-16.36,0-31.8-3.93-45.44-10.9-.54-.27-1.07-.55-1.6-.84-.49-.26-.98-.53-1.46-.8-.67-.36-1.33-.73-1.98-1.12-.4-.24-.79-.47-1.18-.71-.1-.05-.19-.1-.28-.17-.45-.27-.9-.55-1.34-.83-1.74-1.08-3.44-2.23-5.1-3.44-.55-.39-1.1-.8-1.65-1.21,4.72,.69,9.54,1.04,14.45,1.04,9.52,0,18.74-1.33,27.46-3.82,20.87-5.95,38.95-18.5,51.84-35.25,8.49-11.03,14.72-23.88,18.02-37.86,1.75-7.41,2.68-15.13,2.68-23.07,0-5.46-.44-10.8-1.28-16.01-1.06-6.56-2.75-12.9-5.02-18.97-6.74-18.05-18.54-33.63-33.68-45,2.28,.33,4.54,.74,6.78,1.22,.35,.08,.7,.15,1.06,.23,.36,.08,.73,.17,1.09,.26,.39,.09,.78,.19,1.17,.29,.55,.14,1.1,.28,1.65,.43,.42,.11,.84,.23,1.26,.35,.4,.11,.79,.22,1.18,.34,2.98,.89,5.9,1.91,8.76,3.07,.46,.18,.91,.37,1.36,.56,.3,.12,.6,.25,.89,.38,.49,.21,.97,.42,1.46,.64,2.97,1.34,5.86,2.82,8.66,4.43,.53,.31,1.07,.62,1.6,.94,.55,.33,1.09,.66,1.63,1,1,.63,1.99,1.27,2.97,1.93,.5,.34,1,.69,1.49,1.03l.02,.02c1.1,.77,2.19,1.57,3.26,2.39,.47,.36,.93,.71,1.38,1.08,.45,.35,.89,.71,1.33,1.06,.11,.1,.21,.19,.32,.27,.41,.34,.83,.69,1.23,1.04,.48,.41,.95,.81,1.41,1.23,1.38,1.23,2.72,2.49,4.03,3.79,.4,.38,.78,.77,1.17,1.17,1.22,1.26,2.42,2.55,3.57,3.87,.3,.33,.59,.67,.88,1.01,.36,.42,.71,.84,1.06,1.26,.39,.48,.78,.95,1.16,1.43,.3,.38,.61,.77,.91,1.16,.91,1.18,1.79,2.38,2.65,3.6h0c.41,.59,.81,1.18,1.21,1.77,.29,.43,.58,.87,.87,1.31,2.27,3.5,4.32,7.14,6.15,10.92l.6,1.26c.42,.89,.82,1.8,1.22,2.71,.19,.46,.39,.93,.58,1.39,.43,1.04,.84,2.08,1.23,3.13,4.08,10.89,6.3,22.68,6.3,34.99Z"/><path class="cls-6" d="M139.22,67.14c-8.32,2.16-28.56,8.63-45.65,27.62-21.27,23.62-23.35,50.74-23.67,58.61"/></g></svg>