<?xml version="1.0" encoding="utf-8"?>
<!-- Generator: Adobe Illustrator 26.3.1, SVG Export Plug-In . SVG Version: 6.00 Build 0)  -->
<svg version="1.1" id="jet_00000121979692343772115630000007442573118364569491_"
	 xmlns="http://www.w3.org/2000/svg" xmlns:xlink="http://www.w3.org/1999/xlink" x="0px" y="0px" viewBox="0 0 300 300"
	 enable-background="new 0 0 300 300" xml:space="preserve">
<circle id="bg-circle" fill="#2C3B54" cx="150" cy="150" r="150"/>
<path id="shadow" opacity="0.15" d="M296.69,181.49C282.22,249.21,222.04,300,150,300c-7.81,0-15.49-0.6-22.98-1.75l-69.14-69.14
	c-0.31,0.15-0.65,0.22-0.97,0.22c-0.32,0-0.62-0.07-0.88-0.21c-6.33-3.49-7.89-10.94-3.66-17.41l40.49-61.94
	c0.16-0.25,0.37-0.46,0.61-0.61l-0.19-3.48c-0.07-1.26,0.61-2.46,1.8-3.2l12.41-7.77c2.91-1.82,7.01-0.05,7.01,3.03v-5.85
	c0-4.68,2.07-8.87,5.34-11.72c2.17-1.87,4.86-3.17,7.82-3.62c0.77-0.12,1.56-0.18,2.35-0.18c1.13,0,2.16,0.47,2.91,1.21
	c0.74,0.74,1.2,1.77,1.2,2.9V88.06c0-25.85,12.24-49.62,12.24-49.62c0.47-1.9,2.05-2.85,3.64-2.85s3.17,0.95,3.64,2.85l0.01,0.02
	L296.69,181.49z"/>
<g id="jet">
	<path fill="#E9E7F2" d="M119.87,200.28l-0.03,0.01l-5.34,2.49l-10.72,4.98l-45.9,21.35c-0.31,0.15-0.65,0.22-0.97,0.22
		c-0.32,0-0.62-0.07-0.88-0.21c-6.33-3.49-7.89-10.94-3.66-17.41l40.49-61.94c0.16-0.25,0.37-0.46,0.61-0.61
		c0.93-0.62,2.26-0.52,2.72,0.39l4.43,8.68l13.88,27.21l5.34,10.47l1.09,2.14C121.32,198.83,120.85,199.83,119.87,200.28z"/>
	<path fill="#E9E7F2" d="M207.14,149.77l40.49,61.95c4.23,6.47,2.66,13.92-3.66,17.4l0,0c-0.52,0.29-1.23,0.29-1.85,0l-61.99-28.83
		c-0.98-0.45-1.45-1.46-1.06-2.23l24.74-48.51C204.39,148.41,206.34,148.54,207.14,149.77z"/>
	<path fill="#2E2DAA" d="M165.88,130.48v89.85c0,5.78-4.69,10.47-10.47,10.47h-10.81c-5.78,0-10.47-4.68-10.47-10.47v-89.85H165.88z
		"/>
	<path fill="#2E2DAA" d="M134.12,120.48v91.96c0,2.27-1.84,4.11-4.11,4.11h-11.4c-2.27,0-4.11-1.84-4.11-4.11v-80.55
		c0-4.68,2.07-8.87,5.34-11.72c2.17-1.87,4.86-3.17,7.82-3.62c0.77-0.12,1.56-0.18,2.35-0.18c1.13,0,2.16,0.47,2.91,1.21
		C133.66,118.32,134.12,119.35,134.12,120.48z"/>
	<path fill="#2E2DAA" d="M185.5,131.89v80.55c0,2.27-1.84,4.11-4.1,4.11h-11.41c-2.27,0-4.11-1.84-4.11-4.11v-91.96
		c0-1.13,0.46-2.16,1.2-2.9c0.75-0.75,1.78-1.21,2.91-1.21c0.25,0,0.49,0.01,0.75,0.02C178.95,116.78,185.5,123.58,185.5,131.89z"/>
	<path fill="#F0EDF9" d="M114.5,137.74v70.48c0,3.48-5.06,5.09-7.73,2.47l-2.99-2.93l-6.56-6.44c-0.65-0.64-1.03-1.45-1.07-2.3
		l-2.68-49.86l-0.19-3.48c-0.07-1.26,0.61-2.46,1.8-3.2l12.41-7.77C110.4,132.89,114.5,134.66,114.5,137.74z"/>
	<path fill="#F0EDF9" d="M165.88,88.06v32.42c0,5.83,0,10,0,10h-31.76V88.06c0-25.85,12.24-49.62,12.24-49.62
		c0.47-1.9,2.05-2.85,3.64-2.85s3.17,0.95,3.64,2.85l0.01,0.02C154.02,39.13,165.88,61.02,165.88,88.06z"/>
	<path fill="#B7EAD2" d="M151.78,48.45c-0.46-1.86-3.1-1.86-3.56,0c0,0-5.99,11.63-5.99,24.29c0,0,0,0,0,0v12.99
		c0,4.29,3.48,7.77,7.77,7.77h0c4.29,0,7.77-3.48,7.77-7.77V72.74C157.77,59.3,151.78,48.45,151.78,48.45z"/>
	<path opacity="0.15" d="M165.88,88.06v32.42c0,5.83,0,10,0,10v89.84c0,5.78-4.69,10.47-10.47,10.47H150V35.59
		c1.59,0,3.17,0.95,3.64,2.85l0.01,0.02C154.02,39.13,165.88,61.02,165.88,88.06z"/>
	<path opacity="0.15" d="M134.12,120.48v91.96c0,2.27-1.84,4.11-4.11,4.11h-2.35v-100c0.77-0.12,1.56-0.18,2.35-0.18
		c1.13,0,2.16,0.47,2.91,1.21C133.66,118.32,134.12,119.35,134.12,120.48z"/>
	<path opacity="0.15" d="M185.5,131.89v80.55c0,2.27-1.84,4.11-4.1,4.11h-10.66V116.4c3.55,0.17,6.8,1.53,9.33,3.7
		C183.38,122.94,185.5,127.17,185.5,131.89z"/>
	<path opacity="0.15" fill="#FFFFFF" d="M119.84,120.17v96.38h-1.23c-2.27,0-4.11-1.84-4.11-4.11v-80.55
		C114.5,127.21,116.57,123.02,119.84,120.17z"/>
	<path opacity="0.15" d="M185.5,131.89v80.55c0,2.27-1.84,4.11-4.1,4.11h-1.34V120.1C183.38,122.94,185.5,127.17,185.5,131.89z"/>
	<path fill="#E8E5F0" d="M114.5,143.18l0,56.62c0,2.79-3.4,4.09-5.2,1.98l-6.42-7.53c-0.44-0.51-0.69-1.16-0.72-1.84l-1.93-42.85
		c-0.05-1.01,0.41-1.97,1.21-2.57l8.35-6.24C111.74,139.29,114.5,140.71,114.5,143.18z"/>
	<path fill="#E2DFEB" d="M185.5,137.74l0,70.48c0,3.48,5.06,5.09,7.73,2.46l9.55-9.37c0.65-0.64,1.03-1.45,1.08-2.29l2.87-53.34
		c0.07-1.26-0.61-2.46-1.79-3.2l-12.41-7.77C189.6,132.89,185.5,134.66,185.5,137.74z"/>
	<path fill="#D0CEDB" d="M185.5,143.18l0,56.62c0,2.79,3.4,4.09,5.2,1.98l6.42-7.53c0.44-0.51,0.69-1.16,0.72-1.84l1.93-42.85
		c0.05-1.01-0.41-1.97-1.21-2.57l-8.35-6.24C188.26,139.29,185.5,140.71,185.5,143.18z"/>
</g>
</svg>
