<?xml version="1.0" encoding="UTF-8"?><svg id="jet" xmlns="http://www.w3.org/2000/svg" viewBox="0 0 300 300"><defs><style>.cls-1{fill:#f0edf9;}.cls-2{fill:#e9e7f2;}.cls-3{fill:#e8e5f0;}.cls-4{fill:#b7ead2;}.cls-5{fill:#d0cedb;}.cls-6{fill:#e2dfeb;}.cls-7{fill:#2c3b54;}.cls-8{fill:#2e2daa;}.cls-9{fill:#fff;}.cls-9,.cls-10{isolation:isolate;opacity:.15;}</style></defs><circle id="bg-circle" class="cls-7" cx="150" cy="150" r="150"/><path id="shadow" class="cls-10" d="M296.69,181.49c-14.47,67.72-74.65,118.51-146.69,118.51-7.81,0-15.49-.6-22.98-1.75L57.88,229.11c-.31,.15-.65,.22-.97,.22s-.62-.07-.88-.21c-6.33-3.49-7.89-10.94-3.66-17.41l40.49-61.94c.16-.25,.37-.46,.61-.61l-.19-3.48c-.07-1.26,.61-2.46,1.8-3.2l12.41-7.77c2.91-1.82,7.01-.05,7.01,3.03v-5.85c0-4.68,2.07-8.87,5.34-11.72,2.17-1.87,4.86-3.17,7.82-3.62,.77-.12,1.56-.18,2.35-.18,1.13,0,2.16,.47,2.91,1.21,.74,.74,1.2,1.77,1.2,2.9v-32.42c0-25.85,12.24-49.62,12.24-49.62,.47-1.9,2.05-2.85,3.64-2.85s3.17,.95,3.64,2.85v.02l143.05,143.03Z"/><g id="jet-2"><path class="cls-2" d="M119.87,200.28h-.03l-5.34,2.5-10.72,4.98-45.9,21.35c-.31,.15-.65,.22-.97,.22s-.62-.07-.88-.21c-6.33-3.49-7.89-10.94-3.66-17.41l40.49-61.94c.16-.25,.37-.46,.61-.61,.93-.62,2.26-.52,2.72,.39l4.43,8.68,13.88,27.21,5.34,10.47,1.09,2.14c.39,.78-.08,1.78-1.06,2.23Z"/><path class="cls-2" d="M207.14,149.77l40.49,61.95c4.23,6.47,2.66,13.92-3.66,17.4h0c-.52,.29-1.23,.29-1.85,0l-61.99-28.83c-.98-.45-1.45-1.46-1.06-2.23l24.74-48.51c.58-1.14,2.53-1.01,3.33,.22Z"/><path class="cls-8" d="M165.88,130.48v89.85c0,5.78-4.69,10.47-10.47,10.47h-10.81c-5.78,0-10.47-4.68-10.47-10.47v-89.85h31.75Z"/><path class="cls-8" d="M134.12,120.48v91.96c0,2.27-1.84,4.11-4.11,4.11h-11.4c-2.27,0-4.11-1.84-4.11-4.11v-80.55c0-4.68,2.07-8.87,5.34-11.72,2.17-1.87,4.86-3.17,7.82-3.62,.77-.12,1.56-.18,2.35-.18,1.13,0,2.16,.47,2.91,1.21,.74,.74,1.2,1.77,1.2,2.9Z"/><path class="cls-8" d="M185.5,131.89v80.55c0,2.27-1.84,4.11-4.1,4.11h-11.41c-2.27,0-4.11-1.84-4.11-4.11V120.48c0-1.13,.46-2.16,1.2-2.9,.75-.75,1.78-1.21,2.91-1.21,.25,0,.49,.01,.75,.02,8.21,.39,14.76,7.19,14.76,15.5Z"/><path class="cls-1" d="M114.5,137.74v70.48c0,3.48-5.06,5.09-7.73,2.47l-2.99-2.93-6.56-6.44c-.65-.64-1.03-1.45-1.07-2.3l-2.68-49.86-.19-3.48c-.07-1.26,.61-2.46,1.8-3.2l12.41-7.77c2.91-1.82,7.01-.05,7.01,3.03Z"/><path class="cls-1" d="M165.88,88.06v42.42h-31.76v-42.42c0-25.85,12.24-49.62,12.24-49.62,.47-1.9,2.05-2.85,3.64-2.85s3.17,.95,3.64,2.85v.02c.38,.67,12.24,22.56,12.24,49.6Z"/><path class="cls-4" d="M151.78,48.45c-.46-1.86-3.1-1.86-3.56,0,0,0-5.99,11.63-5.99,24.29h0v12.99c0,4.29,3.48,7.77,7.77,7.77h0c4.29,0,7.77-3.48,7.77-7.77v-12.99c0-13.44-5.99-24.29-5.99-24.29Z"/><path class="cls-10" d="M165.88,88.06V220.32c0,5.78-4.69,10.47-10.47,10.47h-5.41V35.59c1.59,0,3.17,.95,3.64,2.85v.02c.38,.67,12.24,22.56,12.24,49.6Z"/><path class="cls-10" d="M134.12,120.48v91.96c0,2.27-1.84,4.11-4.11,4.11h-2.35V116.55c.77-.12,1.56-.18,2.35-.18,1.13,0,2.16,.47,2.91,1.21,.74,.74,1.2,1.77,1.2,2.9Z"/><path class="cls-10" d="M185.5,131.89v80.55c0,2.27-1.84,4.11-4.1,4.11h-10.66V116.4c3.55,.17,6.8,1.53,9.33,3.7,3.31,2.84,5.43,7.07,5.43,11.79Z"/><path class="cls-9" d="M119.84,120.17v96.38h-1.23c-2.27,0-4.11-1.84-4.11-4.11v-80.55c0-4.68,2.07-8.87,5.34-11.72Z"/><path class="cls-10" d="M185.5,131.89v80.55c0,2.27-1.84,4.11-4.1,4.11h-1.34V120.1c3.32,2.84,5.44,7.07,5.44,11.79Z"/><path class="cls-3" d="M114.5,143.18v56.62c0,2.79-3.4,4.09-5.2,1.98l-6.42-7.53c-.44-.51-.69-1.16-.72-1.84l-1.93-42.85c-.05-1.01,.41-1.97,1.21-2.57l8.35-6.24c1.95-1.46,4.71-.04,4.71,2.43Z"/><path class="cls-6" d="M185.5,137.74v70.48c0,3.48,5.06,5.09,7.73,2.46l9.55-9.37c.65-.64,1.03-1.45,1.08-2.29l2.87-53.34c.07-1.26-.61-2.46-1.79-3.2l-12.41-7.77c-2.93-1.82-7.03-.05-7.03,3.03Z"/><path class="cls-5" d="M185.5,143.18v56.62c0,2.79,3.4,4.09,5.2,1.98l6.42-7.53c.44-.51,.69-1.16,.72-1.84l1.93-42.85c.05-1.01-.41-1.97-1.21-2.57l-8.35-6.24c-1.95-1.46-4.71-.04-4.71,2.43Z"/></g></svg>