<?xml version="1.0" encoding="UTF-8"?><svg id="moon" xmlns="http://www.w3.org/2000/svg" viewBox="0 0 300 300"><defs><style>.cls-1{fill:#fff;}.cls-2{fill:#33de7d;}.cls-3{fill:#60e79a;}.cls-4{fill:#2c3b54;}.cls-5{opacity:.1;}.cls-5,.cls-6,.cls-7{isolation:isolate;}.cls-6,.cls-7{opacity:.05;}.cls-7{fill:#88e7b1;}</style></defs><circle id="bg-circle" class="cls-4" cx="150" cy="150" r="150"/><path id="shadow" class="cls-5" d="M300,150c0,82.84-67.16,150-150,150-3.92,0-7.81-.15-11.66-.45L46.93,184.26c12.45,11.35,105.75,34.49,139.92,.32,47.24-47.24,19.88-136.73,11.21-146.24l97.55,75.47c2.87,11.59,4.39,23.71,4.39,36.19Z"/><g id="moon-2"><path class="cls-7" d="M263.55,176.33c-16.52,49.76-62.83,83.18-115.22,83.18-12.98,0-25.87-2.09-38.29-6.22-16.24-5.39-31.02-14.16-43.47-25.51-2.81-2.55-5.5-5.24-8.05-8.05-8.41-9.23-15.42-19.79-20.69-31.32l-1.99-4.38c-3.24-7.1,4.24-14.34,11.24-10.86l4.31,2.14c4.28,2.13,8.76,3.98,13.32,5.5,10.39,3.44,21.15,5.19,31.98,5.19,43.76,0,82.43-27.92,96.24-69.48,3.23-9.72,4.97-19.76,5.18-29.84,.13-6.28-.33-12.57-1.36-18.69-1.46-8.79-4.08-17.35-7.79-25.5l-1.99-4.37c-3.24-7.11,4.25-14.35,11.24-10.87l4.31,2.14c13.41,6.67,25.4,15.78,35.4,26.75l.04,.04c8.67,9.51,15.85,20.39,21.18,32.29,4.11,9.17,7.08,18.86,8.83,28.79,3.43,19.62,1.9,40.04-4.42,59.07Z"/><path class="cls-3" d="M254.06,173.18c-19.39,58.4-82.47,90.01-140.87,70.62-30.62-10.17-53.86-32.34-66.26-59.54,4.66,2.32,9.53,4.34,14.62,6.03,58.4,19.39,121.46-12.22,140.87-70.62,3.6-10.87,5.46-21.89,5.68-32.78,.14-6.95-.36-13.83-1.5-20.57-1.61-9.7-4.51-19.11-8.54-27.97,23.65,11.76,41.66,31.22,51.95,54.21,3.77,8.41,6.5,17.28,8.11,26.44,3.06,17.53,1.95,36.09-4.06,54.18Z"/><path class="cls-2" d="M258.12,118.99c-1.86,.93-3.97,1.44-6.19,1.44-7.74,0-14.01-6.27-14.01-14.01,0-7.08,5.26-12.93,12.09-13.87,3.77,8.41,6.5,17.28,8.11,26.44Z"/><circle class="cls-2" cx="220.22" cy="136.4" r="10.57"/><path class="cls-2" d="M220.22,76.43c0,5.84-4.73,10.57-10.57,10.57-.52,0-1.03-.04-1.54-.11,.14-6.95-.36-13.83-1.5-20.57,.96-.3,1.98-.46,3.04-.46,5.84,0,10.57,4.74,10.57,10.57Z"/><circle class="cls-2" cx="167.12" cy="211.88" r="13.77"/><circle class="cls-2" cx="107.4" cy="225.88" r="6.14"/><circle class="cls-2" cx="204.86" cy="179.79" r="4.79"/><path class="cls-6" d="M254.06,173.18c-15.72,47.33-60.13,77.07-107.5,76.3,53.27-18.67,91.46-69.39,91.46-129.06,0-24.57-6.48-47.62-17.82-67.54,12.89,10.9,23.04,24.51,29.81,39.67,3.77,8.41,6.5,17.28,8.11,26.44,3.06,17.54,1.95,36.1-4.06,54.19Z"/></g><g id="stars"><circle class="cls-1" cx="80.07" cy="114.44" r="5.73"/><circle class="cls-1" cx="148.07" cy="94.48" r="7.48"/><circle class="cls-1" cx="180.89" cy="112.34" r="3.63"/><circle class="cls-1" cx="97.62" cy="166.38" r="3.63"/><circle class="cls-1" cx="49.15" cy="162.75" r="2.22"/><circle class="cls-1" cx="132.27" cy="24.17" r="2.22"/></g></svg>