<?xml version="1.0" encoding="utf-8"?>
<!-- Generator: Adobe Illustrator 26.3.1, SVG Export Plug-In . SVG Version: 6.00 Build 0)  -->
<svg version="1.1" id="moon_00000033338073511101688680000013792292704536446100_"
	 xmlns="http://www.w3.org/2000/svg" xmlns:xlink="http://www.w3.org/1999/xlink" x="0px" y="0px" viewBox="0 0 300 300"
	 enable-background="new 0 0 300 300" xml:space="preserve">
<circle id="bg-circle" fill="#2C3B54" cx="150" cy="150" r="150"/>
<path id="shadow" opacity="0.1" d="M300,150c0,82.84-67.16,150-150,150c-3.92,0-7.81-0.15-11.66-0.45L46.93,184.26
	c12.45,11.35,105.75,34.49,139.92,0.32c47.24-47.24,19.88-136.73,11.21-146.24l97.55,75.47C298.48,125.4,300,137.52,300,150z"/>
<g id="moon">
	<path opacity="0.05" fill="#88E7B1" d="M263.55,176.33c-16.52,49.76-62.83,83.18-115.22,83.18c-12.98,0-25.87-2.09-38.29-6.22
		c-16.24-5.39-31.02-14.16-43.47-25.51c-2.81-2.55-5.5-5.24-8.05-8.05c-8.41-9.23-15.42-19.79-20.69-31.32l-1.99-4.38
		c-3.24-7.1,4.24-14.34,11.24-10.86l4.31,2.14c4.28,2.13,8.76,3.98,13.32,5.5C75.1,184.25,85.86,186,96.69,186
		c43.76,0,82.43-27.92,96.24-69.48c3.23-9.72,4.97-19.76,5.18-29.84c0.13-6.28-0.33-12.57-1.36-18.69
		c-1.46-8.79-4.08-17.35-7.79-25.5l-1.99-4.37c-3.24-7.11,4.25-14.35,11.24-10.87l4.31,2.14c13.41,6.67,25.4,15.78,35.4,26.75
		l0.04,0.04c8.67,9.51,15.85,20.39,21.18,32.29c4.11,9.17,7.08,18.86,8.83,28.79C271.4,136.88,269.87,157.3,263.55,176.33z"/>
	<path fill="#60E79A" d="M254.06,173.18c-19.39,58.4-82.47,90.01-140.87,70.62c-30.62-10.17-53.86-32.34-66.26-59.54
		c4.66,2.32,9.53,4.34,14.62,6.03c58.4,19.39,121.46-12.22,140.87-70.62c3.6-10.87,5.46-21.89,5.68-32.78
		c0.14-6.95-0.36-13.83-1.5-20.57c-1.61-9.7-4.51-19.11-8.54-27.97c23.65,11.76,41.66,31.22,51.95,54.21
		c3.77,8.41,6.5,17.28,8.11,26.44C261.18,136.53,260.07,155.09,254.06,173.18z"/>
	<path fill="#33DE7D" d="M258.12,118.99c-1.86,0.93-3.97,1.44-6.19,1.44c-7.74,0-14.01-6.27-14.01-14.01
		c0-7.08,5.26-12.93,12.09-13.87C253.78,100.96,256.51,109.83,258.12,118.99z"/>
	<circle fill="#33DE7D" cx="220.22" cy="136.4" r="10.57"/>
	<path fill="#33DE7D" d="M220.22,76.43c0,5.84-4.73,10.57-10.57,10.57c-0.52,0-1.03-0.04-1.54-0.11c0.14-6.95-0.36-13.83-1.5-20.57
		c0.96-0.3,1.98-0.46,3.04-0.46C215.49,65.86,220.22,70.6,220.22,76.43z"/>
	<circle fill="#33DE7D" cx="167.12" cy="211.88" r="13.77"/>
	<circle fill="#33DE7D" cx="107.4" cy="225.88" r="6.14"/>
	<circle fill="#33DE7D" cx="204.86" cy="179.79" r="4.79"/>
	<path opacity="0.05" d="M254.06,173.18c-15.72,47.33-60.13,77.07-107.5,76.3c53.27-18.67,91.46-69.39,91.46-129.06
		c0-24.57-6.48-47.62-17.82-67.54c12.89,10.9,23.04,24.51,29.81,39.67c3.77,8.41,6.5,17.28,8.11,26.44
		C261.18,136.53,260.07,155.09,254.06,173.18z"/>
</g>
<g id="stars">
	<circle fill="#FFFFFF" cx="80.07" cy="114.44" r="5.73"/>
	<circle fill="#FFFFFF" cx="148.07" cy="94.48" r="7.48"/>
	<circle fill="#FFFFFF" cx="180.89" cy="112.34" r="3.63"/>
	<circle fill="#FFFFFF" cx="97.62" cy="166.38" r="3.63"/>
	<circle fill="#FFFFFF" cx="49.15" cy="162.75" r="2.22"/>
	<circle fill="#FFFFFF" cx="132.27" cy="24.17" r="2.22"/>
</g>
</svg>
