<?xml version="1.0" encoding="utf-8"?>
<!-- Generator: Adobe Illustrator 26.3.1, SVG Export Plug-In . SVG Version: 6.00 Build 0)  -->
<svg version="1.1" id="orange-planet_00000069392396580488466330000007517013720211029927_"
	 xmlns="http://www.w3.org/2000/svg" xmlns:xlink="http://www.w3.org/1999/xlink" x="0px" y="0px" viewBox="0 0 300 300"
	 enable-background="new 0 0 300 300" xml:space="preserve">
<circle id="bg-circle" fill="#2C3B54" cx="150" cy="150" r="150"/>
<path id="shadow" opacity="0.15" d="M296.76,181.12c-12.23,58.01-57.99,103.66-116.06,115.73l-96.84-96.84
	c96.7-53.05,111.35-96.57,112.5-96.57C197.17,103.44,296.76,181.12,296.76,181.12z"/>
<g id="orange-planet">
	<path fill="#FF8055" d="M203.95,194.37c-0.33,0.4-0.66,0.79-0.99,1.17c-4.95,5.77-10.65,10.53-16.83,14.25
		c-5.65,3.42-11.71,5.97-17.98,7.65c-21.04,5.64-44.39,1.39-62.5-13.51c-18.11-14.89-26.79-36.99-25.31-58.72
		c0.44-6.48,1.77-12.92,4.04-19.12c2.46-6.79,6.04-13.3,10.74-19.27c0.32-0.4,0.63-0.8,0.96-1.2c1.98-2.41,4.08-4.64,6.3-6.71
		c0.9-0.84,1.82-1.67,2.77-2.45c7.07-5.95,15.11-10.29,23.6-13c21.83-6.96,46.63-3.05,65.63,12.59s27.63,39.21,25.01,61.97
		c-1.02,8.85-3.73,17.59-8.2,25.67c-0.58,1.08-1.22,2.15-1.87,3.19C207.71,189.47,205.93,191.96,203.95,194.37z"/>
	<path fill="#FF9755" d="M211.19,183.7L105.14,96.47c7.07-5.95,15.11-10.29,23.6-13l90.64,74.56
		C218.37,166.89,215.67,175.62,211.19,183.7z"/>
	<path fill="#FF9755" d="M203.95,194.37c-0.33,0.4-0.66,0.79-0.99,1.17L95.11,106.83c0.32-0.4,0.63-0.8,0.96-1.2
		c1.98-2.41,4.08-4.64,6.3-6.71l106.95,87.97C207.71,189.47,205.93,191.96,203.95,194.37z"/>
	<path fill="#FF9755" d="M186.12,209.8c-5.65,3.42-11.71,5.97-17.98,7.65l-87.81-72.23c0.44-6.48,1.77-12.92,4.04-19.12
		L186.12,209.8z"/>
	<path opacity="0.11" fill="#663322" d="M219.39,158.03c-1.02,8.86-3.73,17.59-8.2,25.67c-0.59,1.08-1.22,2.14-1.87,3.19
		c-1.61,2.58-3.39,5.07-5.37,7.47c-0.33,0.4-0.66,0.79-0.98,1.18c-4.95,5.76-10.65,10.53-16.84,14.25
		c-5.65,3.42-11.71,5.97-17.99,7.65c-21.03,5.65-44.39,1.39-62.5-13.5c-3.82-3.14-7.22-6.6-10.19-10.32
		c16.54,9.86,36.03,12.18,53.83,7.41c6.27-1.69,12.33-4.23,17.99-7.65c6.19-3.73,11.89-8.49,16.83-14.25
		c0.34-0.39,0.66-0.77,0.99-1.18c1.98-2.41,3.76-4.9,5.37-7.47c0.66-1.05,1.29-2.12,1.87-3.19c4.48-8.08,7.19-16.81,8.21-25.67
		c2.09-18.19-2.99-36.89-14.82-51.65c2.99,1.78,5.9,3.81,8.67,6.09C213.39,111.7,222.01,135.27,219.39,158.03z"/>
	<path opacity="0.21" fill="none" stroke="#FFFFFF" stroke-width="7" stroke-linecap="round" stroke-miterlimit="10" d="
		M151.83,88.19c-6.11,1.14-18.49,4.29-30.67,14.06c-11.76,9.42-17.51,20.33-20.02,25.98"/>
	<g>
		<path fill="#91B6FF" d="M53.93,218.91c-2.81,0-4.84-0.92-6.09-3.08c-2.72-4.72,1.49-9.63,9.7-16.53
			c6.42-5.4,16.66-12.91,28.64-20.94l4.37,8.29c-14.91,9.99-23.09,16.47-27.94,20.64c6.2-2.17,16.52-6.42,33.42-14.77
			c17.05-8.43,36.73-19.03,56.89-30.67c22.57-13.03,44.14-26.46,60.73-37.8c12.14-8.3,19.41-13.94,23.75-17.68
			c-5.23,1.83-13.06,4.99-25.61,10.98l-4.89-7.92c11.42-5.45,21.22-9.79,28.09-12.15c7.13-2.45,14.33-4.42,17.2,0.55
			c2.9,5.02-2.59,10.39-8.45,15.45c-5.68,4.91-14.03,11.14-24.81,18.51c-16.78,11.47-38.56,25.03-61.33,38.18
			c-20.34,11.74-40.19,22.45-57.43,30.96c-13.29,6.57-24.62,11.61-32.75,14.6C61.79,217.6,57.3,218.91,53.93,218.91z"/>
	</g>
</g>
</svg>
