<?xml version="1.0" encoding="UTF-8"?><svg id="orange-planet" xmlns="http://www.w3.org/2000/svg" viewBox="0 0 300 300"><defs><style>.cls-1{fill:#ff9755;}.cls-2{fill:#ff8055;}.cls-3{fill:#91b6ff;}.cls-4{fill:#2c3b54;}.cls-5{fill:#632;opacity:.11;}.cls-5,.cls-6,.cls-7{isolation:isolate;}.cls-6{opacity:.15;}.cls-7{fill:none;opacity:.21;stroke:#fff;stroke-linecap:round;stroke-miterlimit:10;stroke-width:7px;}</style></defs><circle id="bg-circle" class="cls-4" cx="150" cy="150" r="150"/><path id="shadow" class="cls-6" d="M296.76,181.12c-12.23,58.01-57.99,103.66-116.06,115.73l-96.84-96.84c96.7-53.05,111.35-96.57,112.5-96.57,.81,0,100.4,77.68,100.4,77.68Z"/><g id="orange-planet-2"><path class="cls-2" d="M203.95,194.37c-.33,.4-.66,.79-.99,1.17-4.95,5.77-10.65,10.53-16.83,14.25-5.65,3.42-11.71,5.97-17.98,7.65-21.04,5.64-44.39,1.39-62.5-13.51-18.11-14.89-26.79-36.99-25.31-58.72,.44-6.48,1.77-12.92,4.04-19.12,2.46-6.79,6.04-13.3,10.74-19.27,.32-.4,.63-.8,.96-1.2,1.98-2.41,4.08-4.64,6.3-6.71,.9-.84,1.82-1.67,2.77-2.45,7.07-5.95,15.11-10.29,23.6-13,21.83-6.96,46.63-3.05,65.63,12.59s27.63,39.21,25.01,61.97c-1.02,8.85-3.73,17.59-8.2,25.67-.58,1.08-1.22,2.15-1.87,3.19-1.61,2.59-3.39,5.08-5.37,7.49Z"/><path class="cls-1" d="M211.19,183.7L105.14,96.47c7.07-5.95,15.11-10.29,23.6-13l90.64,74.56c-1.01,8.86-3.71,17.59-8.19,25.67Z"/><path class="cls-1" d="M203.95,194.37c-.33,.4-.66,.79-.99,1.17L95.11,106.83c.32-.4,.63-.8,.96-1.2,1.98-2.41,4.08-4.64,6.3-6.71l106.95,87.97c-1.61,2.58-3.39,5.07-5.37,7.48Z"/><path class="cls-1" d="M186.12,209.8c-5.65,3.42-11.71,5.97-17.98,7.65l-87.81-72.23c.44-6.48,1.77-12.92,4.04-19.12l101.75,83.7Z"/><path class="cls-5" d="M219.39,158.03c-1.02,8.86-3.73,17.59-8.2,25.67-.59,1.08-1.22,2.14-1.87,3.19-1.61,2.58-3.39,5.07-5.37,7.47-.33,.4-.66,.79-.98,1.18-4.95,5.76-10.65,10.53-16.84,14.25-5.65,3.42-11.71,5.97-17.99,7.65-21.03,5.65-44.39,1.39-62.5-13.5-3.82-3.14-7.22-6.6-10.19-10.32,16.54,9.86,36.03,12.18,53.83,7.41,6.27-1.69,12.33-4.23,17.99-7.65,6.19-3.73,11.89-8.49,16.83-14.25,.34-.39,.66-.77,.99-1.18,1.98-2.41,3.76-4.9,5.37-7.47,.66-1.05,1.29-2.12,1.87-3.19,4.48-8.08,7.19-16.81,8.21-25.67,2.09-18.19-2.99-36.89-14.82-51.65,2.99,1.78,5.9,3.81,8.67,6.09,19,15.64,27.62,39.21,25,61.97Z"/><path class="cls-7" d="M151.83,88.19c-6.11,1.14-18.49,4.29-30.67,14.06-11.76,9.42-17.51,20.33-20.02,25.98"/><path class="cls-3" d="M53.93,218.91c-2.81,0-4.84-.92-6.09-3.08-2.72-4.72,1.49-9.63,9.7-16.53,6.42-5.4,16.66-12.91,28.64-20.94l4.37,8.29c-14.91,9.99-23.09,16.47-27.94,20.64,6.2-2.17,16.52-6.42,33.42-14.77,17.05-8.43,36.73-19.03,56.89-30.67,22.57-13.03,44.14-26.46,60.73-37.8,12.14-8.3,19.41-13.94,23.75-17.68-5.23,1.83-13.06,4.99-25.61,10.98l-4.89-7.92c11.42-5.45,21.22-9.79,28.09-12.15,7.13-2.45,14.33-4.42,17.2,.55,2.9,5.02-2.59,10.39-8.45,15.45-5.68,4.91-14.03,11.14-24.81,18.51-16.78,11.47-38.56,25.03-61.33,38.18-20.34,11.74-40.19,22.45-57.43,30.96-13.29,6.57-24.62,11.61-32.75,14.6-5.63,2.07-10.12,3.38-13.49,3.38Z"/></g></svg>