<?xml version="1.0" encoding="utf-8"?>
<!-- Generator: Adobe Illustrator 26.3.1, SVG Export Plug-In . SVG Version: 6.00 Build 0)  -->
<svg version="1.1" id="purple-planet_00000096019375299515812570000000081429442349401483_"
	 xmlns="http://www.w3.org/2000/svg" xmlns:xlink="http://www.w3.org/1999/xlink" x="0px" y="0px" viewBox="0 0 300 300"
	 enable-background="new 0 0 300 300" xml:space="preserve">
<circle id="bg-circle" fill="#2C3B54" cx="150" cy="150" r="150"/>
<path id="shadow" opacity="0.15" d="M296.76,181.12c-12.23,58.01-57.99,103.66-116.06,115.73l-96.84-96.84
	c96.7-53.05,111.35-96.57,112.5-96.57C197.17,103.44,296.76,181.12,296.76,181.12z"/>
<g id="purple-planet">
	<radialGradient id="SVGID_1_" cx="151" cy="149" r="110.02" gradientUnits="userSpaceOnUse">
		<stop  offset="0" style="stop-color:#FFFFFF;stop-opacity:0"/>
		<stop  offset="0.3299" style="stop-color:#FDFCFF;stop-opacity:0.198"/>
		<stop  offset="0.5485" style="stop-color:#F8F3FF;stop-opacity:0.3291"/>
		<stop  offset="0.7347" style="stop-color:#F0E4FF;stop-opacity:0.4408"/>
		<stop  offset="0.9019" style="stop-color:#E3CFFF;stop-opacity:0.5411"/>
		<stop  offset="1" style="stop-color:#DABFFF;stop-opacity:0.6"/>
	</radialGradient>
	<path opacity="0.5" fill="url(#SVGID_1_)" d="M261.02,148.99c0,41.1-22.54,76.95-55.95,95.82c-11.56,6.55-24.41,11.06-38.09,13.05
		c-1.99,0.29-3.97,0.53-5.99,0.7c-3.29,0.31-6.62,0.46-10,0.46c-1.15,0-2.29-0.02-3.43-0.06c-1.69-0.05-3.37-0.14-5.03-0.28
		c-56.8-4.32-101.55-51.79-101.55-109.69c0-59.6,47.42-108.14,106.58-109.95c1.14-0.04,2.28-0.06,3.43-0.06
		c0.81,0,1.61,0.02,2.41,0.03c5.76,0.12,11.4,0.69,16.9,1.67c1.89,0.33,3.74,0.71,5.58,1.14c47.64,11,83.42,52.94,85.07,103.49
		C261,146.53,261.02,147.76,261.02,148.99z"/>
	<path fill="#9B1CF0" d="M232.15,149.99c0,30.69-16.83,57.46-41.77,71.55c-8.63,4.89-18.22,8.26-28.44,9.75
		c-1.48,0.22-2.97,0.39-4.47,0.52c-2.46,0.23-4.94,0.34-7.46,0.34c-0.86,0-1.71-0.01-2.56-0.04c-44.18-1.35-79.58-37.61-79.58-82.11
		c0-44.5,35.4-80.74,79.58-82.1c0.85-0.03,1.7-0.04,2.56-0.04c0.6,0,1.2,0.01,1.8,0.02c4.3,0.09,8.51,0.51,12.62,1.24
		c1.41,0.25,2.79,0.53,4.17,0.85C205.01,78.38,232.15,111.02,232.15,149.99z"/>
	<path fill="#8C19D9" d="M149.11,226.95c0.56,0.55,0.89,1.31,0.89,2.15c0,1.52-1.11,2.78-2.58,3
		c-44.18-1.35-79.58-37.61-79.58-82.11c0-44.5,35.4-80.74,79.58-82.1c1.46,0.22,2.58,1.48,2.58,3c0,1.68-1.36,3.04-3.04,3.04h-23.58
		c-0.84,0-1.6,0.34-2.15,0.88c-0.56,0.55-0.89,1.31-0.89,2.15c0,1.68,1.36,3.04,3.04,3.04h15.46c0.84,0,1.6,0.34,2.15,0.89
		c0.56,0.55,0.89,1.31,0.89,2.15c0,1.68-1.36,3.04-3.04,3.04h-23.38c-0.84,0-1.6,0.34-2.15,0.89c-0.56,0.55-0.89,1.31-0.89,2.15
		c0,1.68,1.36,3.03,3.04,3.03h9.77c0.84,0,1.59,0.34,2.15,0.89c0.55,0.55,0.88,1.31,0.88,2.15c0,1.68-1.35,3.04-3.03,3.04h-20.09
		c-0.84,0-1.6,0.34-2.15,0.89c-0.56,0.55-0.89,1.31-0.89,2.15c0,1.68,1.36,3.04,3.04,3.04h26.33c0.84,0,1.6,0.34,2.15,0.88
		c0.56,0.55,0.89,1.31,0.89,2.15c0,1.68-1.36,3.04-3.04,3.04h-20.71c-0.84,0-1.6,0.34-2.15,0.89c-0.56,0.55-0.89,1.31-0.89,2.15
		c0,1.68,1.36,3.04,3.04,3.04h9.78c0.84,0,1.6,0.34,2.15,0.89c0.56,0.55,0.89,1.31,0.89,2.15c0,1.68-1.36,3.03-3.04,3.03h-5.07
		c-0.84,0-1.6,0.34-2.15,0.89c-0.56,0.55-0.89,1.31-0.89,2.15c0,1.68,1.36,3.04,3.04,3.04h7.52c0.84,0,1.6,0.34,2.15,0.89
		c0.56,0.55,0.89,1.31,0.89,2.15c0,1.68-1.36,3.04-3.04,3.04H98.63c-0.84,0-1.6,0.34-2.15,0.88c-0.56,0.55-0.89,1.31-0.89,2.15
		c0,1.68,1.36,3.04,3.04,3.04h16.95c0.84,0,1.6,0.34,2.15,0.89c0.56,0.55,0.89,1.31,0.89,2.15c0,1.68-1.36,3.04-3.04,3.04h-1.54
		c-0.84,0-1.6,0.34-2.15,0.89c-0.56,0.55-0.89,1.31-0.89,2.14c0,1.68,1.36,3.04,3.04,3.04h6.5c0.84,0,1.6,0.34,2.15,0.89
		c0.56,0.55,0.89,1.31,0.89,2.15c0,1.68-1.36,3.04-3.04,3.04H94.47c-0.84,0-1.6,0.34-2.15,0.89c-0.56,0.55-0.89,1.31-0.89,2.15
		c0,1.68,1.36,3.03,3.04,3.03h39.69c0.84,0,1.6,0.34,2.15,0.89c0.56,0.55,0.89,1.31,0.89,2.15c0,1.68-1.36,3.04-3.04,3.04H99.62
		c-0.84,0-1.6,0.34-2.15,0.89c-0.56,0.55-0.89,1.31-0.89,2.15c0,1.68,1.36,3.04,3.04,3.04h17.67c0.84,0,1.6,0.34,2.15,0.88
		c0.56,0.56,0.89,1.31,0.89,2.15c0,1.68-1.36,3.04-3.04,3.04h-14.07c-0.84,0-1.6,0.34-2.15,0.89c-0.55,0.55-0.88,1.31-0.88,2.15
		c0,1.68,1.35,3.04,3.03,3.04h34.51c0.84,0,1.6,0.34,2.15,0.89c0.56,0.55,0.89,1.31,0.89,2.15c0,1.68-1.36,3.03-3.04,3.03h-12.96
		c-0.84,0-1.6,0.34-2.15,0.89c-0.56,0.55-0.89,1.31-0.89,2.15c0,1.68,1.36,3.04,3.04,3.04h4.93c0.84,0,1.6,0.34,2.15,0.89
		c0.56,0.55,0.89,1.31,0.89,2.15c0,1.68-1.36,3.04-3.04,3.04h-11.93c-0.84,0-1.6,0.34-2.15,0.88c-0.56,0.56-0.89,1.31-0.89,2.15
		c0,1.68,1.36,3.04,3.04,3.04h16.39c0.84,0,1.6,0.34,2.15,0.89c0.56,0.55,0.89,1.31,0.89,2.15c0,1.68-1.36,3.04-3.04,3.04h-2.85
		c-0.84,0-1.6,0.34-2.15,0.89c-0.56,0.55-0.89,1.31-0.89,2.15c0,1.68,1.36,3.03,3.04,3.03h15.65
		C147.8,226.06,148.56,226.4,149.11,226.95z"/>
	<path opacity="0.68" fill="#DCF6F7" d="M232.15,149.99c0,30.69-16.83,57.46-41.77,71.55c-8.63,4.89-18.22,8.26-28.44,9.75
		c-1.48,0.22-2.97,0.39-4.47,0.52c-0.28-0.13-0.55-0.33-0.77-0.56c-0.56-0.55-0.89-1.31-0.89-2.15c0-1.68,1.36-3.04,3.04-3.04h10.29
		c0.84,0,1.6-0.34,2.15-0.88c0.56-0.56,0.89-1.31,0.89-2.15c0-1.68-1.36-3.04-3.04-3.04h-4.86c-0.84,0-1.6-0.34-2.15-0.89
		c-0.55-0.55-0.88-1.31-0.88-2.15c0-1.68,1.35-3.04,3.03-3.04h26.05c0.84,0,1.6-0.34,2.15-0.89c0.56-0.55,0.89-1.31,0.89-2.15
		c0-1.68-1.36-3.03-3.04-3.03h-9.76c-0.84,0-1.6-0.34-2.15-0.89c-0.56-0.55-0.89-1.31-0.89-2.15c0-1.68,1.36-3.04,3.04-3.04h20.08
		c0.84,0,1.6-0.34,2.15-0.89c0.56-0.55,0.89-1.31,0.89-2.15c0-1.68-1.36-3.04-3.04-3.04h-26.33c-0.84,0-1.6-0.34-2.15-0.88
		c-0.56-0.56-0.89-1.31-0.89-2.15c0-1.68,1.36-3.04,3.04-3.04h20.72c0.84,0,1.59-0.34,2.15-0.89c0.55-0.55,0.88-1.31,0.88-2.15
		c0-1.68-1.35-3.04-3.03-3.04h-9.79c-0.84,0-1.6-0.34-2.15-0.89c-0.55-0.55-0.88-1.31-0.88-2.15c0-1.68,1.35-3.03,3.03-3.03h5.07
		c0.84,0,1.6-0.34,2.15-0.89c0.56-0.55,0.89-1.31,0.89-2.15c0-1.68-1.36-3.04-3.04-3.04h-7.52c-0.84,0-1.6-0.34-2.15-0.89
		c-0.56-0.55-0.89-1.31-0.89-2.15c0-1.68,1.36-3.04,3.04-3.04h24.37c0.84,0,1.6-0.34,2.15-0.88c0.56-0.56,0.89-1.31,0.89-2.15
		c0-1.68-1.36-3.04-3.04-3.04h-15.08c-0.84,0-1.6-0.34-2.15-0.89c-0.56-0.55-0.89-1.31-0.89-2.15c0-1.68,1.36-3.04,3.04-3.04h14.09
		c0.84,0,1.6-0.34,2.15-0.89c0.55-0.55,0.88-1.31,0.88-2.15c0-1.67-1.35-3.03-3.03-3.03h-25.61c-0.84,0-1.6-0.34-2.15-0.89
		c-0.56-0.55-0.89-1.31-0.89-2.15c0-1.68,1.36-3.04,3.04-3.04h30.75c0.84,0,1.6-0.34,2.15-0.89c0.56-0.55,0.89-1.31,0.89-2.15
		c0-1.68-1.36-3.03-3.04-3.03h-17.94c-0.84,0-1.6-0.34-2.15-0.89c-0.56-0.55-0.89-1.31-0.89-2.15c0-1.68,1.36-3.04,3.04-3.04h12.8
		c0.84,0,1.6-0.34,2.15-0.89c0.55-0.55,0.88-1.31,0.88-2.15c0-1.68-1.35-3.04-3.03-3.04H163.6c-0.84,0-1.59-0.34-2.15-0.88
		c-0.55-0.55-0.88-1.31-0.88-2.15c0-1.68,1.35-3.04,3.03-3.04h38.96c0.84,0,1.6-0.34,2.15-0.89c0.56-0.55,0.89-1.31,0.89-2.15
		c0-1.68-1.36-3.04-3.04-3.04h-27.35c-0.84,0-1.6-0.34-2.15-0.89c-0.56-0.55-0.89-1.31-0.89-2.15c0-1.68,1.36-3.03,3.04-3.03h11.55
		c0.84,0,1.6-0.34,2.15-0.89c0.56-0.55,0.89-1.31,0.89-2.15c0-1.68-1.36-3.04-3.04-3.04h-3.96c-0.84,0-1.6-0.34-2.15-0.89
		c-0.56-0.55-0.89-1.31-0.89-2.15c0-1.68,1.36-3.04,3.04-3.04h5.23c0.84,0,1.6-0.34,2.15-0.88c0.56-0.55,0.89-1.31,0.89-2.15
		c0-1.68-1.36-3.04-3.04-3.04h-32.82c-0.84,0-1.6-0.34-2.15-0.89c-0.56-0.55-0.89-1.31-0.89-2.15c0-1.68,1.36-3.04,3.04-3.04h19.26
		c0.84,0,1.6-0.34,2.15-0.89c0.56-0.55,0.89-1.31,0.89-2.15c0-1.68-1.36-3.03-3.04-3.03h-7.6c-1.68,0-3.03-1.36-3.03-3.04
		c0-0.67,0.21-1.29,0.57-1.78c1.41,0.25,2.79,0.53,4.17,0.85C205.01,78.38,232.15,111.02,232.15,149.99z"/>
</g>
</svg>
