<?xml version="1.0" encoding="UTF-8"?><svg id="purple-planet" xmlns="http://www.w3.org/2000/svg" xmlns:xlink="http://www.w3.org/1999/xlink" viewBox="0 0 300 300"><defs><style>.cls-1{fill:#9b1cf0;}.cls-2{fill:#8c19d9;}.cls-3{fill:#2c3b54;}.cls-4{fill:#dcf6f7;opacity:.68;}.cls-4,.cls-5,.cls-6{isolation:isolate;}.cls-5{opacity:.15;}.cls-6{fill:url(#radial-gradient);opacity:.5;}</style><radialGradient id="radial-gradient" cx="151" cy="151" fx="151" fy="151" r="110.02" gradientTransform="translate(0 300) scale(1 -1)" gradientUnits="userSpaceOnUse"><stop offset="0" stop-color="#fff" stop-opacity="0"/><stop offset=".33" stop-color="#fdfcff" stop-opacity=".2"/><stop offset=".55" stop-color="#f8f3ff" stop-opacity=".33"/><stop offset=".73" stop-color="#f0e4ff" stop-opacity=".44"/><stop offset=".9" stop-color="#e3cfff" stop-opacity=".54"/><stop offset="1" stop-color="#dabfff" stop-opacity=".6"/></radialGradient></defs><circle id="bg-circle" class="cls-3" cx="150" cy="150" r="150"/><path id="shadow" class="cls-5" d="M296.76,181.12c-12.23,58.01-57.99,103.66-116.06,115.73l-96.84-96.84c96.7-53.05,111.35-96.57,112.5-96.57,.81,0,100.4,77.68,100.4,77.68Z"/><g id="purple-planet-2"><path class="cls-6" d="M261.02,148.99c0,41.1-22.54,76.95-55.95,95.82-11.56,6.55-24.41,11.06-38.09,13.05-1.99,.29-3.97,.53-5.99,.7-3.29,.31-6.62,.46-10,.46-1.15,0-2.29-.02-3.43-.06-1.69-.05-3.37-.14-5.03-.28-56.8-4.32-101.55-51.79-101.55-109.69S88.4,40.85,147.56,39.04c1.14-.04,2.28-.06,3.43-.06,.81,0,1.61,.02,2.41,.03,5.76,.12,11.4,.69,16.9,1.67,1.89,.33,3.74,.71,5.58,1.14,47.64,11,83.42,52.94,85.07,103.49,.05,1.22,.07,2.45,.07,3.68Z"/><path class="cls-1" d="M232.15,149.99c0,30.69-16.83,57.46-41.77,71.55-8.63,4.89-18.22,8.26-28.44,9.75-1.48,.22-2.97,.39-4.47,.52-2.46,.23-4.94,.34-7.46,.34-.86,0-1.71,0-2.56-.04-44.18-1.35-79.58-37.61-79.58-82.11s35.4-80.74,79.58-82.1c.85-.03,1.7-.04,2.56-.04,.6,0,1.2,.01,1.8,.02,4.3,.09,8.51,.51,12.62,1.24,1.41,.25,2.79,.53,4.17,.85,36.41,8.41,63.55,41.05,63.55,80.02Z"/><path class="cls-2" d="M149.11,226.95c.56,.55,.89,1.31,.89,2.15,0,1.52-1.11,2.78-2.58,3-44.18-1.35-79.58-37.61-79.58-82.11s35.4-80.74,79.58-82.1c1.46,.22,2.58,1.48,2.58,3,0,1.68-1.36,3.04-3.04,3.04h-23.58c-.84,0-1.6,.34-2.15,.88-.56,.55-.89,1.31-.89,2.15,0,1.68,1.36,3.04,3.04,3.04h15.46c.84,0,1.6,.34,2.15,.89,.56,.55,.89,1.31,.89,2.15,0,1.68-1.36,3.04-3.04,3.04h-23.38c-.84,0-1.6,.34-2.15,.89-.56,.55-.89,1.31-.89,2.15,0,1.68,1.36,3.03,3.04,3.03h9.77c.84,0,1.59,.34,2.15,.89,.55,.55,.88,1.31,.88,2.15,0,1.68-1.35,3.04-3.03,3.04h-20.09c-.84,0-1.6,.34-2.15,.89-.56,.55-.89,1.31-.89,2.15,0,1.68,1.36,3.04,3.04,3.04h26.33c.84,0,1.6,.34,2.15,.88,.56,.55,.89,1.31,.89,2.15,0,1.68-1.36,3.04-3.04,3.04h-20.71c-.84,0-1.6,.34-2.15,.89-.56,.55-.89,1.31-.89,2.15,0,1.68,1.36,3.04,3.04,3.04h9.78c.84,0,1.6,.34,2.15,.89,.56,.55,.89,1.31,.89,2.15,0,1.68-1.36,3.03-3.04,3.03h-5.07c-.84,0-1.6,.34-2.15,.89-.56,.55-.89,1.31-.89,2.15,0,1.68,1.36,3.04,3.04,3.04h7.52c.84,0,1.6,.34,2.15,.89,.56,.55,.89,1.31,.89,2.15,0,1.68-1.36,3.04-3.04,3.04h-24.36c-.84,0-1.6,.34-2.15,.88-.56,.55-.89,1.31-.89,2.15,0,1.68,1.36,3.04,3.04,3.04h16.95c.84,0,1.6,.34,2.15,.89,.56,.55,.89,1.31,.89,2.15,0,1.68-1.36,3.04-3.04,3.04h-1.54c-.84,0-1.6,.34-2.15,.89-.56,.55-.89,1.31-.89,2.14,0,1.68,1.36,3.04,3.04,3.04h6.5c.84,0,1.6,.34,2.15,.89,.56,.55,.89,1.31,.89,2.15,0,1.68-1.36,3.04-3.04,3.04h-26.07c-.84,0-1.6,.34-2.15,.89-.56,.55-.89,1.31-.89,2.15,0,1.68,1.36,3.03,3.04,3.03h39.69c.84,0,1.6,.34,2.15,.89,.56,.55,.89,1.31,.89,2.15,0,1.68-1.36,3.04-3.04,3.04h-34.54c-.84,0-1.6,.34-2.15,.89-.56,.55-.89,1.31-.89,2.15,0,1.68,1.36,3.04,3.04,3.04h17.67c.84,0,1.6,.34,2.15,.88,.56,.56,.89,1.31,.89,2.15,0,1.68-1.36,3.04-3.04,3.04h-14.07c-.84,0-1.6,.34-2.15,.89s-.88,1.31-.88,2.15c0,1.68,1.35,3.04,3.03,3.04h34.51c.84,0,1.6,.34,2.15,.89,.56,.55,.89,1.31,.89,2.15,0,1.68-1.36,3.03-3.04,3.03h-12.96c-.84,0-1.6,.34-2.15,.89-.56,.55-.89,1.31-.89,2.15,0,1.68,1.36,3.04,3.04,3.04h4.93c.84,0,1.6,.34,2.15,.89,.56,.55,.89,1.31,.89,2.15,0,1.68-1.36,3.04-3.04,3.04h-11.93c-.84,0-1.6,.34-2.15,.88-.56,.56-.89,1.31-.89,2.15,0,1.68,1.36,3.04,3.04,3.04h16.39c.84,0,1.6,.34,2.15,.89,.56,.55,.89,1.31,.89,2.15,0,1.68-1.36,3.04-3.04,3.04h-2.85c-.84,0-1.6,.34-2.15,.89-.56,.55-.89,1.31-.89,2.15,0,1.68,1.36,3.03,3.04,3.03h15.65c.84,.24,1.6,.58,2.15,1.13Z"/><path class="cls-4" d="M232.15,149.99c0,30.69-16.83,57.46-41.77,71.55-8.63,4.89-18.22,8.26-28.44,9.75-1.48,.22-2.97,.39-4.47,.52-.28-.13-.55-.33-.77-.56-.56-.55-.89-1.31-.89-2.15,0-1.68,1.36-3.04,3.04-3.04h10.29c.84,0,1.6-.34,2.15-.88,.56-.56,.89-1.31,.89-2.15,0-1.68-1.36-3.04-3.04-3.04h-4.86c-.84,0-1.6-.34-2.15-.89-.55-.55-.88-1.31-.88-2.15,0-1.68,1.35-3.04,3.03-3.04h26.05c.84,0,1.6-.34,2.15-.89,.56-.55,.89-1.31,.89-2.15,0-1.68-1.36-3.03-3.04-3.03h-9.76c-.84,0-1.6-.34-2.15-.89-.56-.55-.89-1.31-.89-2.15,0-1.68,1.36-3.04,3.04-3.04h20.08c.84,0,1.6-.34,2.15-.89,.56-.55,.89-1.31,.89-2.15,0-1.68-1.36-3.04-3.04-3.04h-26.33c-.84,0-1.6-.34-2.15-.88-.56-.56-.89-1.31-.89-2.15,0-1.68,1.36-3.04,3.04-3.04h20.72c.84,0,1.59-.34,2.15-.89,.55-.55,.88-1.31,.88-2.15,0-1.68-1.35-3.04-3.03-3.04h-9.79c-.84,0-1.6-.34-2.15-.89-.55-.55-.88-1.31-.88-2.15,0-1.68,1.35-3.03,3.03-3.03h5.07c.84,0,1.6-.34,2.15-.89,.56-.55,.89-1.31,.89-2.15,0-1.68-1.36-3.04-3.04-3.04h-7.52c-.84,0-1.6-.34-2.15-.89-.56-.55-.89-1.31-.89-2.15,0-1.68,1.36-3.04,3.04-3.04h24.37c.84,0,1.6-.34,2.15-.88,.56-.56,.89-1.31,.89-2.15,0-1.68-1.36-3.04-3.04-3.04h-15.08c-.84,0-1.6-.34-2.15-.89-.56-.55-.89-1.31-.89-2.15,0-1.68,1.36-3.04,3.04-3.04h14.09c.84,0,1.6-.34,2.15-.89,.55-.55,.88-1.31,.88-2.15,0-1.67-1.35-3.03-3.03-3.03h-25.61c-.84,0-1.6-.34-2.15-.89-.56-.55-.89-1.31-.89-2.15,0-1.68,1.36-3.04,3.04-3.04h30.75c.84,0,1.6-.34,2.15-.89,.56-.55,.89-1.31,.89-2.15,0-1.68-1.36-3.03-3.04-3.03h-17.94c-.84,0-1.6-.34-2.15-.89-.56-.55-.89-1.31-.89-2.15,0-1.68,1.36-3.04,3.04-3.04h12.8c.84,0,1.6-.34,2.15-.89,.55-.55,.88-1.31,.88-2.15,0-1.68-1.35-3.04-3.03-3.04h-42.58c-.84,0-1.59-.34-2.15-.88-.55-.55-.88-1.31-.88-2.15,0-1.68,1.35-3.04,3.03-3.04h38.96c.84,0,1.6-.34,2.15-.89,.56-.55,.89-1.31,.89-2.15,0-1.68-1.36-3.04-3.04-3.04h-27.35c-.84,0-1.6-.34-2.15-.89-.56-.55-.89-1.31-.89-2.15,0-1.68,1.36-3.03,3.04-3.03h11.55c.84,0,1.6-.34,2.15-.89,.56-.55,.89-1.31,.89-2.15,0-1.68-1.36-3.04-3.04-3.04h-3.96c-.84,0-1.6-.34-2.15-.89-.56-.55-.89-1.31-.89-2.15,0-1.68,1.36-3.04,3.04-3.04h5.23c.84,0,1.6-.34,2.15-.88,.56-.55,.89-1.31,.89-2.15,0-1.68-1.36-3.04-3.04-3.04h-32.82c-.84,0-1.6-.34-2.15-.89-.56-.55-.89-1.31-.89-2.15,0-1.68,1.36-3.04,3.04-3.04h19.26c.84,0,1.6-.34,2.15-.89,.56-.55,.89-1.31,.89-2.15,0-1.68-1.36-3.03-3.04-3.03h-7.6c-1.68,0-3.03-1.36-3.03-3.04,0-.67,.21-1.29,.57-1.78,1.41,.25,2.79,.53,4.17,.85,36.43,8.18,63.57,40.82,63.57,79.79Z"/></g></svg>