<?xml version="1.0" encoding="utf-8"?>
<!-- Generator: Adobe Illustrator 26.3.1, SVG Export Plug-In . SVG Version: 6.00 Build 0)  -->
<svg version="1.1" id="rocket" xmlns="http://www.w3.org/2000/svg" xmlns:xlink="http://www.w3.org/1999/xlink" x="0px" y="0px"
	 viewBox="0 0 300 300" enable-background="new 0 0 300 300" xml:space="preserve">
<circle id="bg-circle" fill="#2C3B54" cx="150" cy="150" r="150"/>
<path id="shadow" opacity="0.15" d="M298.18,173.4c-9.91,63.25-59.34,113.4-122.24,124.37l-23.18-23.18
	c-9.54,0-17.28-8.8-17.28-19.66v-10.42c0-7.82-1.95-15.47-5.66-22.06c-2.92-5.19-4.51-11.45-4.24-18.15
	c0.24-5.72,1.87-11.04,4.5-15.54c-0.29-0.4-0.29-0.66-0.29-0.66v-2.16c-2.2-1.1-2.2-2.1-2.2-2.1v-6.54l-1.19,0.89
	c-5.44,4.07-9.33,9.88-11.04,16.45l-2.73,10.51c-0.59,2.29-3.97,1.86-3.97-0.51v-21.75c0-3.31,1.63-6.41,4.35-8.3l14.58-10.11
	v-37.17c0,0,0-1.69,4.87-3.12V78.31c0,0,0-2.42,3.22-4.64V54.28c0-0.71,0.03-1.41,0.09-2.09c-0.53-0.23-0.9-0.8-0.82-1.44l0.26-1.99
	c0.07-0.59,0.47-1.08,1.02-1.27c0.12-0.04,0.24-0.08,0.36-0.11c3.52-13.1,16.17-19.4,16.17-19.4l0.02,0.02
	c0.02,0.01,0.04,0.02,0.07,0.03c0.06,0.04,0.15,0.08,0.26,0.14c0.18,0.09,0.41,0.22,0.7,0.4c1.21,0.71,3.32,2.08,5.63,4.12
	c0.23,0.21,0.47,0.42,0.72,0.66c0.24,0.23,0.48,0.46,0.73,0.7c0.24,0.24,0.48,0.49,0.73,0.74c0.24,0.25,0.48,0.52,0.72,0.78
	c0.25,0.27,0.49,0.55,0.72,0.83c0.24,0.28,0.47,0.56,0.7,0.85c0.72,0.92,1.42,1.9,2.06,2.96c0.19,0.31,0.37,0.62,0.55,0.94
	c0.03,0.05,0.06,0.1,0.09,0.16c0.15,0.26,0.29,0.52,0.42,0.79L298.18,173.4z"/>
<g>
	<g>
		<path fill="#FFA500" d="M179.97,205.8c0,6.26-1.63,12.09-4.44,16.96c-3.72,6.43-5.5,14.06-5.5,21.76v10.41
			c0,5.43-1.93,10.35-5.06,13.9c-3.12,3.56-7.44,5.76-12.21,5.76c-9.54,0-17.28-8.8-17.28-19.66v-10.42
			c0-7.82-1.95-15.47-5.66-22.06c-2.92-5.19-4.51-11.45-4.24-18.15c0.24-5.72,1.87-11.04,4.5-15.54c0.43-0.73,0.88-1.44,1.36-2.13
			c0.96-1.37,2.02-2.64,3.15-3.81c4.65-4.77,10.74-7.75,17.37-7.97c0.27-0.01,0.53-0.01,0.8-0.01c3.84,0,7.5,0.91,10.81,2.54
			c4.16,2.05,7.78,5.25,10.54,9.25c0.49,0.68,0.93,1.38,1.35,2.1C178.31,193.62,179.97,199.49,179.97,205.8z"/>
		<path fill="#FFC04A" d="M171.68,203.17c0-14.06-8.77-25.41-19.48-25c-9.8,0.37-17.88,10.84-18.34,23.79
			c-0.21,5.97,1.16,11.51,3.61,15.94c2.22,4.02,3.27,8.81,3.27,13.63v11.34c0,8.77,5.38,15.88,12.01,15.88h0
			c6.63,0,12.01-7.11,12.01-15.88v-11.74c0-4.84,1.3-9.5,3.47-13.58C170.41,213.48,171.68,208.52,171.68,203.17z"/>
		<path fill="#FFF6E6" d="M163.57,197.42c0-8.3-5.01-15-11.12-14.77c-5.64,0.21-10.34,6.64-10.5,14.35
			c-0.06,2.92,0.5,5.64,1.51,7.96c1.72,3.93,2.8,8.31,2.8,12.88v18.9c0,4.92,2.92,8.91,6.52,8.91h0c3.6,0,6.52-3.99,6.52-8.91
			v-19.37c0-4.38,1.04-8.57,2.71-12.31C163,202.83,163.57,200.22,163.57,197.42z"/>
	</g>
	<path fill="#BDBDBD" d="M171.89,161.23l15.1,10.47c2.72,1.89,4.34,4.99,4.34,8.3v21.75c0,2.37-3.37,2.8-3.97,0.51l-2.73-10.51
		c-1.71-6.58-5.6-12.38-11.03-16.46l-1.64-1.23c-1.11-0.83-1.76-2.13-1.76-3.51v-8.44C170.21,161.25,171.18,160.74,171.89,161.23z"
		/>
	<g>
		<path fill="#CF292C" d="M169.83,54.28v19.39c0,0.69,0,1.08,0,1.08h-12.16c-0.01,0-0.01,0-0.02,0h-21.97c0,0,0-0.39,0-1.08V54.28
			c0-0.71,0.03-1.41,0.09-2.09c0.06-0.83,0.16-1.63,0.29-2.42c0.14-0.82,0.32-1.62,0.53-2.39c3.52-13.1,16.17-19.4,16.17-19.4
			l0.02,0.02c0.02,0.01,0.04,0.02,0.07,0.03c0.06,0.04,0.15,0.08,0.26,0.14c0.18,0.09,0.41,0.22,0.7,0.4
			c1.21,0.71,3.32,2.08,5.63,4.12c0.24,0.22,0.48,0.43,0.72,0.66c0.24,0.23,0.48,0.46,0.73,0.7c0.24,0.24,0.48,0.49,0.73,0.74
			c0.24,0.25,0.48,0.52,0.72,0.78c0.25,0.27,0.49,0.55,0.72,0.83c0.24,0.28,0.47,0.56,0.7,0.85c0.72,0.92,1.42,1.9,2.06,2.96
			c0.19,0.31,0.37,0.62,0.55,0.94c0.03,0.05,0.06,0.1,0.09,0.16c0.15,0.26,0.29,0.52,0.42,0.79c0.08,0.14,0.14,0.28,0.21,0.42
			c0.1,0.19,0.2,0.39,0.29,0.6c0.1,0.21,0.2,0.43,0.29,0.65c0.04,0.1,0.09,0.2,0.13,0.3c0.12,0.29,0.24,0.59,0.35,0.9
			c0.03,0.08,0.06,0.16,0.09,0.24c0.12,0.32,0.23,0.64,0.33,0.97c0.13,0.39,0.24,0.78,0.35,1.18h0.01c0.21,0.78,0.39,1.58,0.53,2.41
			c0.13,0.78,0.23,1.58,0.29,2.4c0.03,0.34,0.05,0.69,0.06,1.04C169.82,53.56,169.83,53.92,169.83,54.28z"/>
		<path opacity="0.1" d="M168.92,47.36c-3.55-1.16-7.48-1.92-11.57-2.24c-1.14-11.51-4.33-16.73-4.57-17.12
			c0.02,0.01,0.04,0.02,0.07,0.03c0.06,0.04,0.15,0.08,0.26,0.14c0.18,0.1,0.41,0.23,0.7,0.4c1.21,0.71,3.32,2.08,5.63,4.12
			c0.23,0.21,0.47,0.42,0.72,0.66c0.24,0.23,0.48,0.46,0.73,0.7c0.24,0.24,0.48,0.49,0.73,0.74c0.24,0.25,0.48,0.52,0.72,0.78
			c0.25,0.27,0.49,0.55,0.72,0.83c0.24,0.28,0.47,0.56,0.7,0.85c0.72,0.92,1.42,1.9,2.06,2.96c0.19,0.31,0.37,0.62,0.55,0.94
			c0.03,0.05,0.06,0.1,0.09,0.16c0.15,0.26,0.29,0.52,0.42,0.79c0.08,0.14,0.14,0.28,0.21,0.42c0.1,0.19,0.2,0.39,0.29,0.6
			c0.1,0.21,0.2,0.43,0.29,0.65c0.04,0.1,0.09,0.2,0.13,0.3c0.12,0.29,0.24,0.59,0.35,0.9c0.03,0.08,0.06,0.16,0.09,0.24
			c0.12,0.32,0.23,0.64,0.33,0.97C168.7,46.57,168.81,46.96,168.92,47.36z"/>
		<path opacity="0.1" d="M169.83,54.28c0,7.24,0,20.48,0,20.48h-12.16c0,0,0.09-9.61,0.09-21.03c0-1.35-0.03-2.64-0.08-3.87
			c1.17,0.11,2.32,0.25,3.44,0.43c2.68,0.44,5.23,1.09,7.59,1.94c0.36,0.13,0.72,0.1,1.04-0.05
			C169.81,52.86,169.83,53.56,169.83,54.28z"/>
		<path fill="#BDBDBD" d="M173.06,78.31v48.88c0,1.53-0.65,2.9-1.67,3.82c-0.84,0.77-1.94,1.23-3.14,1.23h-30.98
			c-0.99,0-1.91-0.31-2.68-0.85c-0.16-0.12-0.31-0.24-0.46-0.38c-1.02-0.92-1.67-2.29-1.67-3.82V78.31c0,0,0-2.42,3.22-4.64
			c1.07-0.74,2.5-1.45,4.41-2.05c0.86-0.27,1.83-0.52,2.9-0.73c2.57-0.51,5.78-0.83,9.77-0.83c0.32,0,0.63,0,0.94,0.01
			c0.23,0,0.47,0,0.7,0.01h0.2c1.1,0.03,2.13,0.09,3.1,0.16c1.88,0.15,3.53,0.39,4.98,0.68c0.64,0.14,1.25,0.28,1.81,0.43
			c0.18,0.05,0.36,0.1,0.53,0.15c0.75,0.22,1.43,0.46,2.05,0.71c0.23,0.09,0.45,0.18,0.65,0.28c0.26,0.12,0.51,0.24,0.74,0.36
			c0.18,0.09,0.34,0.18,0.5,0.27c0.19,0.11,0.37,0.22,0.54,0.33c0.12,0.07,0.23,0.14,0.33,0.21v0.01c0.56,0.38,1.02,0.77,1.39,1.15
			c0.1,0.09,0.18,0.18,0.26,0.27c0.1,0.11,0.19,0.21,0.28,0.32c0.72,0.87,1.04,1.66,1.18,2.2c0.02,0.06,0.03,0.11,0.04,0.16
			c0.02,0.07,0.03,0.13,0.04,0.19c0.01,0.05,0.02,0.1,0.02,0.15c0.01,0.04,0.01,0.08,0.01,0.11
			C173.06,78.28,173.06,78.31,173.06,78.31z"/>
		<path opacity="0.05" d="M173.06,78.31v48.88c0,2.78-2.15,5.04-4.81,5.04h-5.51c0,0-0.43-20.47-0.52-38.41
			c-0.06-11.77-1.97-18.2-3.29-21.26c-0.45-1.04,0.41-2.17,1.53-2.02C173.06,72.3,173.06,78.31,173.06,78.31z"/>
		<path fill="#C4C4C4" d="M159.52,74.09c-0.33,0.35-0.79,0.6-1.38,0.66c-0.09,0.01-0.18,0.01-0.27,0.01
			c-0.06-0.01-0.14-0.01-0.2-0.01c-0.01,0-0.01,0-0.02,0c-5.29,0-9.2,0.56-12.09,1.39c-3.08,0.88-5,2.06-6.2,3.2
			c-2.02,1.89-2.02,3.67-2.02,3.67v48.88c0,0.11,0,0.23,0.02,0.35h-0.09c-0.99,0-1.91-0.31-2.68-0.85
			c-0.16-0.12-0.31-0.24-0.46-0.38c-1.02-0.92-1.67-2.29-1.67-3.82V78.31c0,0,0-2.42,3.22-4.64c1.07-0.74,2.5-1.45,4.41-2.05
			c0.86-0.27,1.83-0.52,2.9-0.73c2.57-0.51,5.78-0.83,9.77-0.83c0.32,0,0.63,0,0.94,0.01c0.23,0,0.47,0,0.7,0.01h0.2
			c1.1,0.03,2.13,0.09,3.1,0.17l0.39,0.03c0.55,0.05,0.99,0.24,1.32,0.53C160.36,71.63,160.37,73.2,159.52,74.09z"/>
		<path fill="#D4D4D4" d="M143.05,132.24h-1.17c-1.39,0-2.52-1.13-2.52-2.52V73.4c0-1.39,1.13-2.52,2.52-2.52h1.17
			c1.39,0,2.52,1.13,2.52,2.52v56.32C145.56,131.11,144.43,132.24,143.05,132.24z"/>
		<path fill="#5E4317" d="M175.73,133.97v54.13c0,0,0,0.25-0.27,0.63c-0.48,0.71-1.89,1.9-5.94,2.84c-1.68,0.39-3.82,0.74-6.55,0.99
			c-0.12,0.01-0.23,0.02-0.35,0.03c-2.69,0.23-5.94,0.37-9.86,0.37c-4.08,0-7.43-0.15-10.19-0.41c-2.64-0.24-4.73-0.57-6.39-0.94
			c-0.06-0.01-0.11-0.02-0.16-0.04c-4.01-0.92-5.44-2.1-5.94-2.81c-0.29-0.4-0.29-0.66-0.29-0.66v-54.13c0,0,0-1.6,4.34-2.96
			c0.15-0.05,0.3-0.09,0.46-0.14c0.48-0.14,1.01-0.27,1.59-0.4c0.36-0.08,0.75-0.16,1.16-0.24c0.62-0.12,1.3-0.23,2.03-0.34
			c1.73-0.25,3.77-0.45,6.19-0.58c2.11-0.13,4.49-0.19,7.2-0.19c3.92,0,7.17,0.13,9.86,0.37c0.02,0,0.04,0,0.06,0.01
			c0.3,0.02,0.6,0.05,0.89,0.08c3.54,0.35,6.05,0.87,7.82,1.43C175.73,132.37,175.73,133.97,175.73,133.97z"/>
		<path fill="#CF292C" d="M177.94,127.31v56.53c0,0,0,1-2.21,2.11c-0.44,0.22-0.98,0.45-1.62,0.68c-1.46,0.51-3.49,1.02-6.29,1.42
			c-1.25,0.18-2.66,0.34-4.25,0.47c-0.67,0.05-1.37,0.1-2.1,0.15c-2.5,0.15-5.38,0.24-8.71,0.24c-3.3,0-6.16-0.09-8.65-0.24
			c-2.48-0.15-4.59-0.36-6.38-0.62c-1.18-0.17-2.22-0.36-3.14-0.56c-1.26-0.27-2.3-0.56-3.15-0.86c-0.65-0.23-1.2-0.46-1.65-0.69
			c-2.2-1.1-2.2-2.1-2.2-2.1v-56.53c0,0,0-1.69,4.87-3.12c0.62-0.19,1.33-0.37,2.13-0.54c0.82-0.18,1.73-0.34,2.75-0.5
			c0.63-0.09,1.3-0.18,2.02-0.26c1.78-0.21,3.84-0.38,6.2-0.5c2.14-0.09,4.53-0.15,7.2-0.15c3.82,0,7.05,0.11,9.79,0.3
			c0.35,0.03,0.69,0.05,1.02,0.08c4.35,0.36,7.38,0.93,9.49,1.55C177.94,125.61,177.94,127.31,177.94,127.31z"/>
		<path fill="#E6E6E6" d="M170.56,50.74c0.09,0.65-0.28,1.21-0.81,1.43c-0.31,0.15-0.67,0.17-1.03,0.05
			c-2.36-0.85-4.91-1.5-7.6-1.94c-1.12-0.18-2.27-0.33-3.44-0.43c-1.61-0.16-3.25-0.23-4.92-0.23c-5.72,0-11.24,0.9-15.96,2.61
			c-0.16,0.05-0.31,0.08-0.48,0.08c-0.19,0-0.38-0.04-0.55-0.12c-0.53-0.23-0.9-0.8-0.82-1.44l0.26-1.99
			c0.07-0.59,0.47-1.08,1.02-1.27c0.12-0.04,0.24-0.08,0.36-0.11c4.9-1.6,10.46-2.44,16.17-2.44c1.54,0,3.08,0.06,4.59,0.18
			c4.09,0.32,8.02,1.08,11.57,2.24h0.01c0.13,0.04,0.24,0.08,0.36,0.12c0.55,0.19,0.95,0.68,1.02,1.26L170.56,50.74z"/>
		<path fill="#DE2124" d="M152.76,122.24v66.67c-8.75,0-14.45-0.61-18.18-1.41v-63.84C138.31,122.85,144.02,122.24,152.76,122.24z"
			/>
		<path opacity="0.07" d="M177.94,127.31v56.53c0,0,0,3.49-14.37,4.68v-65.9C177.94,123.82,177.94,127.31,177.94,127.31z"/>
		<path opacity="0.05" d="M170.56,50.74c0.08,0.65-0.29,1.21-0.81,1.43c-0.32,0.14-0.68,0.17-1.04,0.05
			c-2.36-0.85-4.91-1.5-7.59-1.94c-1.13-0.18-2.27-0.32-3.44-0.43c-0.07-1.68-0.18-3.26-0.33-4.73c4.09,0.32,8.02,1.08,11.58,2.24
			c0.13,0.04,0.24,0.08,0.36,0.12c0.56,0.19,0.95,0.68,1.03,1.26L170.56,50.74z"/>
	</g>
	<path fill="#BDBDBD" d="M129.79,165v8.44c0,1.39-0.65,2.69-1.75,3.52l-0.45,0.34l-1.19,0.89c-5.44,4.07-9.33,9.88-11.04,16.45
		l-2.73,10.51c-0.59,2.29-3.97,1.86-3.97-0.51v-21.75c0-3.31,1.63-6.41,4.35-8.3l14.58-10.11l0.52-0.36
		C128.82,163.63,129.79,164.14,129.79,165z"/>
</g>
</svg>
