<?xml version="1.0" encoding="UTF-8"?><svg id="rocket" xmlns="http://www.w3.org/2000/svg" viewBox="0 0 300 300"><defs><style>.cls-1{fill:#e6e6e6;}.cls-2{fill:#fff6e6;}.cls-3{fill:#ffc04a;}.cls-4{fill:orange;}.cls-5{fill:#cf292c;}.cls-6{fill:#bdbdbd;}.cls-7{fill:#c4c4c4;}.cls-8{fill:#de2124;}.cls-9{fill:#d4d4d4;}.cls-10{fill:#2c3b54;}.cls-11{fill:#5e4317;}.cls-12{opacity:.07;}.cls-12,.cls-13,.cls-14,.cls-15{isolation:isolate;}.cls-13{opacity:.1;}.cls-14{opacity:.05;}.cls-15{opacity:.15;}</style></defs><circle id="bg-circle" class="cls-10" cx="150" cy="150" r="150"/><path id="shadow" class="cls-15" d="M298.18,173.4c-9.91,63.25-59.34,113.4-122.24,124.37l-23.18-23.18c-9.54,0-17.28-8.8-17.28-19.66v-10.42c0-7.82-1.95-15.47-5.66-22.06-2.92-5.19-4.51-11.45-4.24-18.15,.24-5.72,1.87-11.04,4.5-15.54-.29-.4-.29-.66-.29-.66v-2.16c-2.2-1.1-2.2-2.1-2.2-2.1v-6.54l-1.19,.89c-5.44,4.07-9.33,9.88-11.04,16.45l-2.73,10.51c-.59,2.29-3.97,1.86-3.97-.51v-21.75c0-3.31,1.63-6.41,4.35-8.3l14.58-10.11v-37.17s0-1.69,4.87-3.12v-45.88s0-2.42,3.22-4.64v-19.39c0-.71,.03-1.41,.09-2.09-.53-.23-.9-.8-.82-1.44l.26-1.99c.07-.59,.47-1.08,1.02-1.27,.12-.04,.24-.08,.36-.11,3.52-13.1,16.17-19.4,16.17-19.4l.02,.02s.04,.02,.07,.03c.06,.04,.15,.08,.26,.14,.18,.09,.41,.22,.7,.4,1.21,.71,3.32,2.08,5.63,4.12,.23,.21,.47,.42,.72,.66,.24,.23,.48,.46,.73,.7,.24,.24,.48,.49,.73,.74,.24,.25,.48,.52,.72,.78,.25,.27,.49,.55,.72,.83,.24,.28,.47,.56,.7,.85,.72,.92,1.42,1.9,2.06,2.96,.19,.31,.37,.62,.55,.94,.03,.05,.06,.1,.09,.16,.15,.26,.29,.52,.42,.79l131.3,131.3Z"/><g><g><path class="cls-4" d="M179.97,205.8c0,6.26-1.63,12.09-4.44,16.96-3.72,6.43-5.5,14.06-5.5,21.76v10.41c0,5.43-1.93,10.35-5.06,13.9-3.12,3.56-7.44,5.76-12.21,5.76-9.54,0-17.28-8.8-17.28-19.66v-10.42c0-7.82-1.95-15.47-5.66-22.06-2.92-5.19-4.51-11.45-4.24-18.15,.24-5.72,1.87-11.04,4.5-15.54,.43-.73,.88-1.44,1.36-2.13,.96-1.37,2.02-2.64,3.15-3.81,4.65-4.77,10.74-7.75,17.37-7.97,.27,0,.53,0,.8,0,3.84,0,7.5,.91,10.81,2.54,4.16,2.05,7.78,5.25,10.54,9.25,.49,.68,.93,1.38,1.35,2.1,2.85,4.89,4.51,10.76,4.51,17.07Z"/><path class="cls-3" d="M171.68,203.17c0-14.06-8.77-25.41-19.48-25-9.8,.37-17.88,10.84-18.34,23.79-.21,5.97,1.16,11.51,3.61,15.94,2.22,4.02,3.27,8.81,3.27,13.63v11.34c0,8.77,5.38,15.88,12.01,15.88h0c6.63,0,12.01-7.11,12.01-15.88v-11.74c0-4.84,1.3-9.5,3.47-13.58,2.18-4.07,3.45-9.03,3.45-14.38Z"/><path class="cls-2" d="M163.57,197.42c0-8.3-5.01-15-11.12-14.77-5.64,.21-10.34,6.64-10.5,14.35-.06,2.92,.5,5.64,1.51,7.96,1.72,3.93,2.8,8.31,2.8,12.88v18.9c0,4.92,2.92,8.91,6.52,8.91h0c3.6,0,6.52-3.99,6.52-8.91v-19.37c0-4.38,1.04-8.57,2.71-12.31,.99-2.23,1.56-4.84,1.56-7.64Z"/></g><path class="cls-6" d="M171.89,161.23l15.1,10.47c2.72,1.89,4.34,4.99,4.34,8.3v21.75c0,2.37-3.37,2.8-3.97,.51l-2.73-10.51c-1.71-6.58-5.6-12.38-11.03-16.46l-1.64-1.23c-1.11-.83-1.76-2.13-1.76-3.51v-8.44c0-.86,.98-1.37,1.69-.88Z"/><g><path class="cls-5" d="M169.83,54.28v20.47h-34.15v-20.47c0-.71,.03-1.41,.09-2.09,.06-.83,.16-1.63,.29-2.42,.14-.82,.32-1.62,.53-2.39,3.52-13.1,16.17-19.4,16.17-19.4l.02,.02s.04,.02,.07,.03c.06,.04,.15,.08,.26,.14,.18,.09,.41,.22,.7,.4,1.21,.71,3.32,2.08,5.63,4.12,.24,.22,.48,.43,.72,.66s.48,.46,.73,.7c.24,.24,.48,.49,.73,.74,.24,.25,.48,.52,.72,.78,.25,.27,.49,.55,.72,.83,.24,.28,.47,.56,.7,.85,.72,.92,1.42,1.9,2.06,2.96,.19,.31,.37,.62,.55,.94,.03,.05,.06,.1,.09,.16,.15,.26,.29,.52,.42,.79,.08,.14,.14,.28,.21,.42,.1,.19,.2,.39,.29,.6,.1,.21,.2,.43,.29,.65,.04,.1,.09,.2,.13,.3,.12,.29,.24,.59,.35,.9l.09,.24c.12,.32,.23,.64,.33,.97,.13,.39,.24,.78,.35,1.18h0c.21,.78,.39,1.58,.53,2.41,.13,.78,.23,1.58,.29,2.4,.03,.34,.05,.69,.06,1.04,.01,.35,.02,.71,.02,1.07Z"/><path class="cls-13" d="M168.92,47.36c-3.55-1.16-7.48-1.92-11.57-2.24-1.14-11.51-4.33-16.73-4.57-17.12,.02,.01,.04,.02,.07,.03,.06,.04,.15,.08,.26,.14,.18,.1,.41,.23,.7,.4,1.21,.71,3.32,2.08,5.63,4.12,.23,.21,.47,.42,.72,.66,.24,.23,.48,.46,.73,.7,.24,.24,.48,.49,.73,.74,.24,.25,.48,.52,.72,.78,.25,.27,.49,.55,.72,.83,.24,.28,.47,.56,.7,.85,.72,.92,1.42,1.9,2.06,2.96,.19,.31,.37,.62,.55,.94,.03,.05,.06,.1,.09,.16,.15,.26,.29,.52,.42,.79,.08,.14,.14,.28,.21,.42,.1,.19,.2,.39,.29,.6,.1,.21,.2,.43,.29,.65,.04,.1,.09,.2,.13,.3,.12,.29,.24,.59,.35,.9l.09,.24c.12,.32,.23,.64,.33,.97,.13,.39,.24,.78,.35,1.18Z"/><path class="cls-13" d="M169.83,54.28v20.48h-12.16s.09-9.61,.09-21.03c0-1.35-.03-2.64-.08-3.87,1.17,.11,2.32,.25,3.44,.43,2.68,.44,5.23,1.09,7.59,1.94,.36,.13,.72,.1,1.04-.05,.06,.68,.08,1.38,.08,2.1Z"/><path class="cls-6" d="M173.06,78.31v48.88c0,1.53-.65,2.9-1.67,3.82-.84,.77-1.94,1.23-3.14,1.23h-30.98c-.99,0-1.91-.31-2.68-.85-.16-.12-.31-.24-.46-.38-1.02-.92-1.67-2.29-1.67-3.82v-48.88s0-2.42,3.22-4.64c1.07-.74,2.5-1.45,4.41-2.05,.86-.27,1.83-.52,2.9-.73,2.57-.51,5.78-.83,9.77-.83,.32,0,.63,0,.94,.01,.23,0,.47,0,.7,.01h.2c1.1,.03,2.13,.09,3.1,.16,1.88,.15,3.53,.39,4.98,.68,.64,.14,1.25,.28,1.81,.43,.18,.05,.36,.1,.53,.15,.75,.22,1.43,.46,2.05,.71,.23,.09,.45,.18,.65,.28,.26,.12,.51,.24,.74,.36,.18,.09,.34,.18,.5,.27,.19,.11,.37,.22,.54,.33,.12,.07,.23,.14,.33,.21h0c.56,.39,1.02,.78,1.39,1.16,.1,.09,.18,.18,.26,.27,.1,.11,.19,.21,.28,.32,.72,.87,1.04,1.66,1.18,2.2,.02,.06,.03,.11,.04,.16,.02,.07,.03,.13,.04,.19,0,.05,.02,.1,.02,.15,0,.04,0,.08,0,.11,.01,.06,.01,.09,.01,.09Z"/><path class="cls-14" d="M173.06,78.31v48.88c0,2.78-2.15,5.04-4.81,5.04h-5.51s-.43-20.47-.52-38.41c-.06-11.77-1.97-18.2-3.29-21.26-.45-1.04,.41-2.17,1.53-2.02,12.6,1.76,12.6,7.77,12.6,7.77Z"/><path class="cls-7" d="M159.52,74.09c-.33,.35-.79,.6-1.38,.66-.09,.01-.18,.01-.27,.01-.06-.01-.14-.01-.2-.01h-.02c-5.29,0-9.2,.56-12.09,1.39-3.08,.88-5,2.06-6.2,3.2-2.02,1.89-2.02,3.67-2.02,3.67v48.88c0,.11,0,.23,.02,.35h-.09c-.99,0-1.91-.31-2.68-.85-.16-.12-.31-.24-.46-.38-1.02-.92-1.67-2.29-1.67-3.82v-48.88s0-2.42,3.22-4.64c1.07-.74,2.5-1.45,4.41-2.05,.86-.27,1.83-.52,2.9-.73,2.57-.51,5.78-.83,9.77-.83,.32,0,.63,0,.94,.01,.23,0,.47,0,.7,.01h.2c1.1,.03,2.13,.09,3.1,.17l.39,.03c.55,.05,.99,.24,1.32,.53,.95,.82,.96,2.39,.11,3.28Z"/><path class="cls-9" d="M143.05,132.24h-1.17c-1.39,0-2.52-1.13-2.52-2.52v-56.32c0-1.39,1.13-2.52,2.52-2.52h1.17c1.39,0,2.52,1.13,2.52,2.52v56.32c-.01,1.39-1.14,2.52-2.52,2.52Z"/><path class="cls-11" d="M175.73,133.97v54.13s0,.25-.27,.63c-.48,.71-1.89,1.9-5.94,2.84-1.68,.39-3.82,.74-6.55,.99-.12,0-.23,.02-.35,.03-2.69,.23-5.94,.37-9.86,.37s-7.43-.15-10.19-.41c-2.64-.24-4.73-.57-6.39-.94-.06,0-.11-.02-.16-.04-4.01-.92-5.44-2.1-5.94-2.81-.29-.4-.29-.66-.29-.66v-54.13s0-1.6,4.34-2.96c.15-.05,.3-.09,.46-.14,.48-.14,1.01-.27,1.59-.4,.36-.08,.75-.16,1.16-.24,.62-.12,1.3-.23,2.03-.34,1.73-.25,3.77-.45,6.19-.58,2.11-.13,4.49-.19,7.2-.19,3.92,0,7.17,.13,9.86,.37,.02,0,.04,0,.06,0,.3,.02,.6,.05,.89,.08,3.54,.35,6.05,.87,7.82,1.43,4.34,1.36,4.34,2.96,4.34,2.96Z"/><path class="cls-5" d="M177.94,127.31v56.53s0,1-2.21,2.11c-.44,.22-.98,.45-1.62,.68-1.46,.51-3.49,1.02-6.29,1.42-1.25,.18-2.66,.34-4.25,.47-.67,.05-1.37,.1-2.1,.15-2.5,.15-5.38,.24-8.71,.24s-6.16-.09-8.65-.24c-2.48-.15-4.59-.36-6.38-.62-1.18-.17-2.22-.36-3.14-.56-1.26-.27-2.3-.56-3.15-.86-.65-.23-1.2-.46-1.65-.69-2.2-1.1-2.2-2.1-2.2-2.1v-56.53s0-1.69,4.87-3.12c.62-.19,1.33-.37,2.13-.54,.82-.18,1.73-.34,2.75-.5,.63-.09,1.3-.18,2.02-.26,1.78-.21,3.84-.38,6.2-.5,2.14-.09,4.53-.15,7.2-.15,3.82,0,7.05,.11,9.79,.3,.35,.03,.69,.05,1.02,.08,4.35,.36,7.38,.93,9.49,1.55,4.88,1.44,4.88,3.14,4.88,3.14Z"/><path class="cls-1" d="M170.56,50.74c.09,.65-.28,1.21-.81,1.43-.31,.15-.67,.17-1.03,.05-2.36-.85-4.91-1.5-7.6-1.94-1.12-.18-2.27-.33-3.44-.43-1.61-.16-3.25-.23-4.92-.23-5.72,0-11.24,.9-15.96,2.61-.16,.05-.31,.08-.48,.08-.19,0-.38-.04-.55-.12-.53-.23-.9-.8-.82-1.44l.26-1.99c.07-.59,.47-1.08,1.02-1.27,.12-.04,.24-.08,.36-.11,4.9-1.6,10.46-2.44,16.17-2.44,1.54,0,3.08,.06,4.59,.18,4.09,.32,8.02,1.08,11.57,2.24h0c.13,.04,.24,.08,.36,.12,.55,.19,.95,.68,1.02,1.26l.25,2Z"/><path class="cls-8" d="M152.76,122.24v66.67c-8.75,0-14.45-.61-18.18-1.41v-63.84c3.73-.81,9.44-1.42,18.18-1.42Z"/><path class="cls-12" d="M177.94,127.31v56.53s0,3.49-14.37,4.68V122.62c14.37,1.2,14.37,4.69,14.37,4.69Z"/><path class="cls-14" d="M170.56,50.74c.08,.65-.29,1.21-.81,1.43-.32,.14-.68,.17-1.04,.05-2.36-.85-4.91-1.5-7.59-1.94-1.13-.18-2.27-.32-3.44-.43-.07-1.68-.18-3.26-.33-4.73,4.09,.32,8.02,1.08,11.58,2.24,.13,.04,.24,.08,.36,.12,.56,.19,.95,.68,1.03,1.26l.24,2Z"/></g><path class="cls-6" d="M129.79,165v8.44c0,1.39-.65,2.69-1.75,3.52l-.45,.34-1.19,.89c-5.44,4.07-9.33,9.88-11.04,16.45l-2.73,10.51c-.59,2.29-3.97,1.86-3.97-.51v-21.75c0-3.31,1.63-6.41,4.35-8.3l14.58-10.11,.52-.36c.71-.49,1.68,.02,1.68,.88Z"/></g></svg>