<?xml version="1.0" encoding="UTF-8"?><svg id="shooting-star" xmlns="http://www.w3.org/2000/svg" viewBox="0 0 329.8 342.26"><defs><style>.cls-1{fill:none;}.cls-2{fill:#fff136;}.cls-3{fill:#e90034;}.cls-4{fill:#0f48cc;}.cls-5{fill:#2c3b54;}.cls-6{isolation:isolate;opacity:.15;}</style></defs><path id="bg-shadow" class="cls-5" d="M300,150c0,82.84-67.16,150-150,150S0,232.84,0,150,67.16,0,150,0c32.69,0,62.93,10.46,87.57,28.22,13.38,9.62,25.1,21.4,34.66,34.83,17.49,24.53,27.77,54.54,27.77,86.95Z"/><g id="shooting-star-2"><path class="cls-2" d="M259.41,79.41l-123.37,123.36c-6.14,6.14-15.41,15.42-25.53,21.05-5.89,3.28-11.34,4.92-16.32,4.92-5.87,0-11.08-2.27-15.61-6.79-7.87-7.87-8.35-18.44-1.43-31.42,4.16-7.81,10.9-16.33,20.61-26.04L200.13,62.13c.97-.98,2.56-.98,3.53,0,.98,.97,.98,2.56,0,3.53l-14.88,14.89s0-.01,.02-.01c-.73,.88-27.28,28.52-20.54,28.51l10.34-.02c4.24-.01,7.5,3.75,6.9,7.95-.53,3.65,.88,7.11,3.42,9.39,2.58,2.31,7.92,1.01,11.02-.55l24.53-18.55,31.4-31.4c.98-.97,2.56-.97,3.54,0,.97,.98,.97,2.56,0,3.54Z"/><path class="cls-4" d="M165.39,126.31h0c-1.22-1.22-3.2-1.22-4.42,0l-23.44,23.44c-1.22,1.22-3.2,1.22-4.42,0h0c-1.22-1.22-1.22-3.2,0-4.42l4.12-4.12c1.22-1.22,1.22-3.2,0-4.42h0c-1.22-1.22-3.2-1.22-4.42,0l-40.06,40.06c-8.54,8.54-22.59,29.09-10.37,41.31,12.86,12.86,32.77-1.83,41.31-10.37l43.7-43.7c1.22-1.22,1.22-3.2,0-4.42h0c-1.22-1.22-3.2-1.22-4.42,0l-1.96,1.96c-1.22,1.22-3.2,1.22-4.42,0h0c-1.22-1.22-1.22-3.2,0-4.42l13.47-13.47c1.22-1.22,1.22-3.2,0-4.42h0c-1.22-1.22-3.2-1.22-4.42,0l-8.46,8.46c-1.22,1.22-3.2,1.22-4.42,0h0c-1.22-1.22-1.22-3.2,0-4.42l12.63-12.63c1.22-1.22,1.22-3.2,0-4.42Z"/><path class="cls-3" d="M129.58,163.53h0c-1.03-1.03-2.69-1.03-3.71,0l-8.69,8.69c-1.02,1.02-2.69,1.02-3.71,0h0c-1.02-1.02-1.02-2.69,0-3.71l.55-.55c1.02-1.02,1.02-2.69,0-3.71h0c-1.02-1.02-2.69-1.02-3.71,0l-16.39,16.39c-7.18,7.18-18.98,24.44-8.71,34.7,10.8,10.8,27.53-1.54,34.7-8.71l19.45-19.45c1.02-1.02,1.02-2.69,0-3.71h0c-1.02-1.02-2.69-1.02-3.71,0l-1.64,1.64c-1.02,1.02-2.69,1.02-3.71,0h0c-1.02-1.02-1.02-2.69,0-3.71l4.73-4.73c1.02-1.02,1.02-2.69,0-3.71h0c-1.02-1.02-2.69-1.02-3.71,0l-.52,.52c-1.02,1.02-2.69,1.02-3.71,0h0c-1.02-1.02-1.02-2.69,0-3.71l2.52-2.52c.99-1.03,.99-2.69-.03-3.72Z"/></g><line class="cls-1" x1="198.89" y1="342.26" x2="156.49" y2="299.86"/><line class="cls-1" x1="329.8" y1="146.27" x2="294.99" y2="111.45"/><path class="cls-6" d="M300,150c0,80.67-63.68,146.46-143.51,149.86l-77.91-77.91c-7.87-7.87-8.35-18.44-1.43-31.42,4.16-7.81,10.9-16.33,20.61-26.04L200.13,62.13c.97-.98,2.56-.98,3.53,0,.98,.97,.98,2.56,0,3.53l-14.88,14.89s0-.01,.02-.01c-.73,.88-27.28,28.52-20.54,28.51l10.34-.02c4.24-.01,7.5,3.75,6.9,7.95-.53,3.65,.88,7.11,3.42,9.39,2.58,2.31,7.92,1.01,11.02-.55l24.53-18.55,31.4-31.4c.98-.97,2.56-.97,3.54,0l35.58,35.58c3.27,12.3,5.01,25.23,5.01,38.55Z"/></svg>