<?xml version="1.0" encoding="utf-8"?>
<!-- Generator: Adobe Illustrator 26.3.1, SVG Export Plug-In . SVG Version: 6.00 Build 0)  -->
<svg version="1.1" id="shooting-star_00000026126112124262664360000001012572769084081847_"
	 xmlns="http://www.w3.org/2000/svg" xmlns:xlink="http://www.w3.org/1999/xlink" x="0px" y="0px" viewBox="0 0 300 300"
	 enable-background="new 0 0 300 300" xml:space="preserve">
<path id="bg-shadow" fill="#2C3B54" d="M300,150c0,82.84-67.16,150-150,150S0,232.84,0,150S67.16,0,150,0
	c32.69,0,62.93,10.46,87.57,28.22c13.38,9.62,25.1,21.4,34.66,34.83C289.72,87.58,300,117.59,300,150z"/>
<g id="shooting-star">
	<path fill="#FFF136" d="M259.41,79.41L136.04,202.77c-6.14,6.14-15.41,15.42-25.53,21.05c-5.89,3.28-11.34,4.92-16.32,4.92
		c-5.87,0-11.08-2.27-15.61-6.79c-7.87-7.87-8.35-18.44-1.43-31.42c4.16-7.81,10.9-16.33,20.61-26.04L200.13,62.13
		c0.97-0.98,2.56-0.98,3.53,0c0.98,0.97,0.98,2.56,0,3.53l-14.88,14.89c0.01,0,0.01-0.01,0.02-0.01
		c-0.73,0.88-27.28,28.52-20.54,28.51l10.34-0.02c4.24-0.01,7.5,3.75,6.9,7.95c-0.53,3.65,0.88,7.11,3.42,9.39
		c2.58,2.31,7.92,1.01,11.02-0.55l24.53-18.55l31.4-31.4c0.98-0.97,2.56-0.97,3.54,0C260.38,76.85,260.38,78.43,259.41,79.41z"/>
	<path fill="#0F48CC" d="M165.39,126.31L165.39,126.31c-1.22-1.22-3.2-1.22-4.42,0l-23.44,23.44c-1.22,1.22-3.2,1.22-4.42,0l0,0
		c-1.22-1.22-1.22-3.2,0-4.42l4.12-4.12c1.22-1.22,1.22-3.2,0-4.42l0,0c-1.22-1.22-3.2-1.22-4.42,0l-40.06,40.06
		c-8.54,8.54-22.59,29.09-10.37,41.31c12.86,12.86,32.77-1.83,41.31-10.37l43.7-43.7c1.22-1.22,1.22-3.2,0-4.42l0,0
		c-1.22-1.22-3.2-1.22-4.42,0l-1.96,1.96c-1.22,1.22-3.2,1.22-4.42,0l0,0c-1.22-1.22-1.22-3.2,0-4.42l13.47-13.47
		c1.22-1.22,1.22-3.2,0-4.42l0,0c-1.22-1.22-3.2-1.22-4.42,0l-8.46,8.46c-1.22,1.22-3.2,1.22-4.42,0v0c-1.22-1.22-1.22-3.2,0-4.42
		l12.63-12.63C166.61,129.51,166.61,127.53,165.39,126.31z"/>
	<path fill="#E90034" d="M129.58,163.53L129.58,163.53c-1.03-1.03-2.69-1.03-3.71,0l-8.69,8.69c-1.02,1.02-2.69,1.02-3.71,0l0,0
		c-1.02-1.02-1.02-2.69,0-3.71l0.55-0.55c1.02-1.02,1.02-2.69,0-3.71l0,0c-1.02-1.02-2.69-1.02-3.71,0l-16.39,16.39
		c-7.18,7.18-18.98,24.44-8.71,34.7c10.8,10.8,27.53-1.54,34.7-8.71l19.45-19.45c1.02-1.02,1.02-2.69,0-3.71l0,0
		c-1.02-1.02-2.69-1.02-3.71,0l-1.64,1.64c-1.02,1.02-2.69,1.02-3.71,0l0,0c-1.02-1.02-1.02-2.69,0-3.71l4.73-4.73
		c1.02-1.02,1.02-2.69,0-3.71l0,0c-1.02-1.02-2.69-1.02-3.71,0l-0.52,0.52c-1.02,1.02-2.69,1.02-3.71,0l0,0
		c-1.02-1.02-1.02-2.69,0-3.71l2.52-2.52C130.6,166.22,130.6,164.56,129.58,163.53z"/>
</g>
<line fill="none" x1="198.89" y1="342.26" x2="156.49" y2="299.86"/>
<line fill="none" x1="329.8" y1="146.27" x2="294.99" y2="111.45"/>
<path opacity="0.15" d="M300,150c0,80.67-63.68,146.46-143.51,149.86l-77.91-77.91c-7.87-7.87-8.35-18.44-1.43-31.42
	c4.16-7.81,10.9-16.33,20.61-26.04L200.13,62.13c0.97-0.98,2.56-0.98,3.53,0c0.98,0.97,0.98,2.56,0,3.53l-14.88,14.89
	c0.01,0,0.01-0.01,0.02-0.01c-0.73,0.88-27.28,28.52-20.54,28.51l10.34-0.02c4.24-0.01,7.5,3.75,6.9,7.95
	c-0.53,3.65,0.88,7.11,3.42,9.39c2.58,2.31,7.92,1.01,11.02-0.55l24.53-18.55l31.4-31.4c0.98-0.97,2.56-0.97,3.54,0l35.58,35.58
	C298.26,123.75,300,136.68,300,150z"/>
</svg>
