<?xml version="1.0" encoding="UTF-8"?><svg id="spaceman" xmlns="http://www.w3.org/2000/svg" viewBox="0 0 300 300"><defs><style>.cls-1{fill:#6a53a8;}.cls-2{fill:#fff;}.cls-3{fill:#a99af5;}.cls-4{fill:#cc7070;}.cls-5{fill:#9587d6;}.cls-6{fill:#2c3b54;}.cls-7{fill:#58398c;}.cls-8{fill:#7a60c2;}.cls-9{opacity:.2;}.cls-10{isolation:isolate;opacity:.15;}</style></defs><circle id="bg-circle" class="cls-6" cx="150" cy="150" r="150"/><path id="shadow" class="cls-10" d="M299.69,159.72c-5.01,78.31-70.12,140.28-149.69,140.28-1.52,0-3.03-.02-4.53-.07l-62.02-62.02c-.83-.62-1.65-1.27-2.45-1.93-3.02-2.5-3.94-6.52-2.69-9.93-8.05-7.08-13.86-16.62-16.25-27.45-6.84-1.08-12.06-7-12.06-14.13v-55.38c0-6.63,4.93-12.11,11.32-12.97,0-.13,.03-.26,.04-.39,.04-.33,.09-.66,.14-.99,.05-.34,.1-.67,.15-1.01,.04-.27,.09-.54,.14-.8,.1-.61,.22-1.21,.34-1.81,.13-.62,.26-1.24,.41-1.85,.12-.54,.26-1.08,.4-1.61,.08-.32,.17-.64,.27-.96,.15-.56,.31-1.11,.48-1.66,.2-.64,.41-1.27,.63-1.9,.17-.49,.34-.98,.53-1.47,.1-.26,.19-.52,.3-.78,.21-.57,.44-1.12,.67-1.67,.26-.6,.52-1.2,.8-1.79,.25-.55,.51-1.1,.78-1.64,.35-.71,.71-1.42,1.09-2.11,.3-.55,.61-1.1,.93-1.64,.02-.04,.04-.08,.06-.11,.29-.5,.59-1,.9-1.49,.06-.11,.13-.21,.19-.3,.33-.53,.68-1.06,1.03-1.58,.02-.04,.05-.08,.07-.11,.36-.53,.72-1.05,1.09-1.56,.39-.55,.8-1.09,1.21-1.62,.41-.54,.83-1.07,1.26-1.59,.84-1.03,1.72-2.04,2.64-3.02l.06-.06c.37-.4,.75-.79,1.13-1.18,.62-.63,1.25-1.24,1.89-1.84,.41-.39,.83-.77,1.25-1.15,.02-.01,.04-.02,.05-.04,.5-.44,1.01-.87,1.52-1.3,.04-.03,.09-.07,.14-.12,.94-.77,1.9-1.52,2.88-2.23,.11-.08,.22-.16,.33-.25l1.2-.84,.48-.33c.5-.33,1.01-.67,1.52-.99,.57-.36,1.15-.72,1.73-1.06,9.44-5.58,20.45-8.78,32.21-8.78h51.49c5.56,0,10.95,.71,16.08,2.05,9.7,2.54,18.49,7.31,25.78,13.73v-8.14c-3.53-1.61-5.99-5.17-5.99-9.3,0-5.65,4.57-10.23,10.22-10.23s10.23,4.58,10.23,10.23c0,4.13-2.46,7.69-6,9.3v17.19c.71,.92,1.39,1.86,2.05,2.82l71.57,71.58Z"/><g id="spaceman-2"><path class="cls-4" d="M232.07,58.83c0,4.13-2.46,7.69-6,9.3v59.12c0,2.31-1.87,4.19-4.19,4.19h-.08c-2.31,0-4.19-1.88-4.19-4.19v-59.12c-3.53-1.61-5.99-5.17-5.99-9.3,0-5.65,4.57-10.23,10.22-10.23s10.23,4.58,10.23,10.23Z"/><path class="cls-7" d="M222.23,229.11c0,2.55-1.09,5.09-3.23,6.87-12.05,9.97-27.19,15.42-42.83,15.42h-52.34c-7.82,0-15.51-1.36-22.76-3.97-6.28-2.26-12.23-5.46-17.62-9.52-.83-.62-1.65-1.27-2.45-1.93-3.02-2.5-3.94-6.52-2.69-9.93,.46-1.27,1.22-2.45,2.27-3.44l.11-.1c1.71-1.6,3.93-2.48,6.24-2.48h54.01c5,0,9.06,4.06,9.06,9.07,0-5.01,4.06-9.07,9.06-9.07h54.01c2.31,0,4.53,.88,6.24,2.48l.11,.1c.85,.8,1.51,1.73,1.97,2.73,.11,.23,.21,.46,.29,.7,.37,.99,.55,2.03,.55,3.07Z"/><g id="ear"><path class="cls-7" d="M71.88,124.6v68.53c0,3.11-2.53,5.64-5.65,5.64h-1.92c-.77,0-1.52-.06-2.25-.17-6.84-1.08-12.06-7-12.06-14.13v-55.38c0-6.63,4.93-12.11,11.32-12.97,.58-.08,1.17-.12,1.77-.12h.19c4.6,0,8.36,3.61,8.59,8.16,.01,.14,.01,.29,.01,.44Z"/><path class="cls-7" d="M233.75,198.77h-.2c-3,0-5.43-2.43-5.43-5.43V120.75c0-2.62,2.13-4.75,4.75-4.75h.2c9.35,0,16.94,7.58,16.94,16.94v49.58c-.01,8.97-7.29,16.25-16.26,16.25Z"/></g><path class="cls-8" d="M239.17,123.9v63.55c0,3.69-.39,7.28-1.13,10.74-1.66,7.83-5.12,15.01-9.92,21.08-1.34,1.69-2.77,3.29-4.31,4.8h0c-.69,.69-1.39,1.34-2.12,1.97-.59,.53-1.2,1.04-1.82,1.53-.34,.27-.68,.54-1.03,.8-1.38,1.06-2.82,2.04-4.31,2.95-.74,.46-1.5,.89-2.27,1.31-.39,.21-.77,.41-1.16,.61s-.79,.4-1.18,.58c-.4,.19-.8,.38-1.2,.56s-.81,.35-1.22,.52c-.4,.17-.81,.33-1.23,.49h0c-.4,.17-.82,.32-1.23,.47-.3,.1-.59,.2-.88,.3-.26,.09-.52,.17-.78,.25-2.08,.67-4.22,1.2-6.4,1.59-.29,.05-.58,.1-.86,.15-.51,.08-1.02,.16-1.53,.22-.34,.05-.69,.09-1.03,.13-.57,.06-1.14,.12-1.71,.16-1.33,.11-2.67,.16-4.03,.16H112.21c-12.99,0-24.85-4.82-33.9-12.77-8.05-7.08-13.86-16.62-16.25-27.45-.8-3.59-1.22-7.32-1.22-11.15v-63.55c0-.73,0-1.45,.04-2.17,.02-.72,.06-1.44,.11-2.16,.03-.52,.07-1.03,.12-1.55,.06-.63,.12-1.26,.2-1.88,0-.01,0-.02,0-.02,0-.13,.03-.26,.04-.39,.04-.33,.09-.66,.14-.99,.05-.34,.1-.67,.15-1.01,.04-.27,.09-.54,.14-.8,.1-.61,.22-1.21,.34-1.81,.13-.62,.26-1.24,.41-1.85,.12-.54,.26-1.08,.4-1.61,.08-.32,.17-.64,.27-.96,.15-.56,.31-1.11,.48-1.66,.2-.64,.41-1.27,.63-1.9,.17-.49,.34-.98,.53-1.47,.1-.26,.19-.52,.3-.78,.21-.57,.44-1.12,.67-1.67,.26-.6,.52-1.2,.8-1.79,.25-.55,.51-1.1,.78-1.64,.35-.71,.71-1.42,1.09-2.11,.3-.55,.61-1.1,.93-1.64,.02-.04,.04-.08,.06-.11,.29-.5,.59-1,.9-1.49,.06-.11,.13-.21,.19-.3,.33-.53,.68-1.06,1.03-1.58,.02-.04,.05-.08,.07-.11,.36-.53,.72-1.05,1.09-1.56,.39-.55,.8-1.09,1.21-1.62,.41-.54,.83-1.07,1.26-1.59,.84-1.03,1.72-2.04,2.64-3.02l.06-.06c.37-.4,.75-.79,1.13-1.18,.62-.63,1.25-1.24,1.89-1.84,.41-.39,.83-.77,1.25-1.15,.02-.01,.04-.02,.05-.04,.5-.44,1.01-.87,1.52-1.3,.04-.03,.09-.07,.14-.12,.94-.77,1.9-1.52,2.88-2.23,.11-.08,.22-.16,.33-.25l1.2-.84,.48-.33c.5-.33,1.01-.67,1.52-.99,.57-.36,1.15-.72,1.73-1.06,9.44-5.58,20.45-8.78,32.21-8.78h51.49c5.56,0,10.95,.71,16.08,2.05,9.7,2.54,18.49,7.31,25.78,13.73,3.11,2.73,5.95,5.76,8.46,9.05,.71,.92,1.39,1.86,2.05,2.82,5.74,8.4,9.53,18.24,10.68,28.86,.24,2.27,.37,4.57,.37,6.9Z"/><path id="goggle-shadow" class="cls-5" d="M178.05,202.38h-56.1c-20.08,0-36.35-16.28-36.35-36.35v-17.28c0-20.08,16.28-36.35,36.35-36.35h56.1c20.08,0,36.35,16.28,36.35,36.35v17.28c.01,20.08-16.27,36.35-36.35,36.35Z"/><path id="goggle" class="cls-3" d="M178.05,194.64h-56.1c-20.08,0-36.35-16.28-36.35-36.35v-17.28c0-20.08,16.28-36.35,36.35-36.35h56.1c20.08,0,36.35,16.28,36.35,36.35v17.28c.01,20.08-16.27,36.35-36.35,36.35Z"/><path class="cls-1" d="M223.8,224.08c-.69,.68-1.39,1.33-2.12,1.96-.59,.53-1.2,1.04-1.82,1.53-.34,.27-.68,.54-1.03,.8-1.38,1.06-2.82,2.04-4.31,2.95-.74,.46-1.5,.89-2.27,1.31-.39,.21-.77,.41-1.16,.61s-.79,.4-1.18,.58c-.4,.19-.8,.38-1.2,.56s-.81,.35-1.22,.52c-.4,.17-.81,.33-1.23,.49h0c-.4,.17-.82,.32-1.23,.47-.3,.1-.59,.2-.88,.3-.26,.09-.52,.17-.78,.25-2.08,.67-4.22,1.2-6.4,1.59-.29,.05-.58,.1-.86,.15-.51,.08-1.02,.16-1.53,.22-.34,.05-.69,.09-1.03,.13-.57,.06-1.14,.12-1.71,.16-1.33,.11-2.67,.16-4.03,.16H112.21c-12.99,0-24.85-4.82-33.9-12.77-8.05-7.08-13.86-16.62-16.25-27.45-.8-3.59-1.22-7.32-1.22-11.15v-63.55c0-.73,0-1.45,.04-2.17,.02-.72,.06-1.44,.11-2.16,.03-.52,.07-1.03,.12-1.55,.06-.63,.12-1.26,.2-1.88,0-.01,0-.02,0-.02,0-.13,.03-.26,.04-.39,.04-.33,.09-.66,.14-.99,.05-.34,.1-.67,.15-1.01,.04-.27,.09-.54,.14-.8,.1-.61,.22-1.21,.34-1.81,.13-.62,.26-1.24,.41-1.85,.12-.54,.26-1.08,.4-1.61,.08-.32,.17-.64,.27-.96,.15-.56,.31-1.11,.48-1.66,.2-.64,.41-1.27,.63-1.9,.17-.49,.34-.98,.53-1.47,.1-.26,.19-.52,.3-.78,.21-.57,.44-1.12,.67-1.67,.26-.6,.52-1.2,.8-1.79,.25-.55,.51-1.1,.78-1.64,.35-.71,.71-1.42,1.09-2.11,.3-.55,.61-1.1,.93-1.64,.02-.04,.04-.08,.06-.11,.29-.5,.59-1,.9-1.49,.06-.11,.13-.21,.19-.3,.33-.53,.68-1.06,1.03-1.58,.02-.04,.05-.08,.07-.11,.36-.53,.72-1.05,1.09-1.56,.39-.55,.8-1.09,1.21-1.62,.41-.54,.83-1.07,1.26-1.59,.85-1.03,1.73-2.04,2.64-3.02l.06-.06c.37-.4,.75-.79,1.13-1.18,.62-.63,1.25-1.24,1.89-1.84,.41-.39,.83-.77,1.25-1.15,.02-.01,.04-.02,.05-.04,.5-.44,1.01-.87,1.52-1.3,.04-.03,.09-.07,.14-.12,.94-.77,1.9-1.51,2.88-2.23,.11-.08,.22-.16,.33-.25l1.2-.84,.48-.33c.5-.33,1.01-.67,1.52-.99,.57-.36,1.15-.72,1.73-1.06-12.42,11.57-20.18,28.07-20.18,46.37v63.54c0,.22,0,.45,.01,.67,.2,16.39,8.09,30.92,20.22,40.18,8.64,6.6,19.44,10.52,31.15,10.52h75.58c1.37,0,2.71-.05,4.04-.16,6.6-.51,12.86-2.26,18.52-5.05,.81-.4,1.62-.82,2.41-1.26Z"/><g id="light-reflect" class="cls-9"><path class="cls-2" d="M198.11,136.91c-3.87,0-7-3.13-7-7,0-1.01-3.38-4.9-10.89-4.9h-25.32c-3.87,0-7-3.13-7-7s3.13-7,7-7h25.32c13.72,0,24.89,8.48,24.89,18.9,0,3.87-3.13,7-7,7Z"/><path class="cls-2" d="M198.11,158.58c-3.87,0-7-3.13-7-7v-3.85c0-3.87,3.13-7,7-7s7,3.13,7,7v3.85c0,3.86-3.13,7-7,7Z"/><path class="cls-2" d="M203.25,88.06c-1.79,0-3.58-.68-4.95-2.05-6.98-6.98-21.38-7.73-27.25-7.73h-40.87c-3.87,0-7-3.13-7-7s3.13-7,7-7h40.87c9.45,0,26.85,1.54,37.15,11.84,2.73,2.73,2.73,7.17,0,9.9-1.37,1.36-3.16,2.04-4.95,2.04Z"/></g></g></svg>