<?xml version="1.0" encoding="utf-8"?>
<!-- Generator: Adobe Illustrator 26.3.1, SVG Export Plug-In . SVG Version: 6.00 Build 0)  -->
<svg version="1.1" id="spaceman_00000081648110511210954570000003440382081811493310_"
	 xmlns="http://www.w3.org/2000/svg" xmlns:xlink="http://www.w3.org/1999/xlink" x="0px" y="0px" viewBox="0 0 300 300"
	 enable-background="new 0 0 300 300" xml:space="preserve">
<circle id="bg-circle" fill="#2C3B54" cx="150" cy="150" r="150"/>
<path id="shadow" opacity="0.15" d="M299.69,159.72C294.68,238.03,229.57,300,150,300c-1.52,0-3.03-0.02-4.53-0.07l-62.02-62.02
	c-0.83-0.62-1.65-1.27-2.45-1.93c-3.02-2.5-3.94-6.52-2.69-9.93c-8.05-7.08-13.86-16.62-16.25-27.45c-6.84-1.08-12.06-7-12.06-14.13
	v-55.38c0-6.63,4.93-12.11,11.32-12.97c0.01-0.13,0.03-0.26,0.04-0.39c0.04-0.33,0.09-0.66,0.14-0.99c0.05-0.34,0.1-0.67,0.15-1.01
	c0.04-0.27,0.09-0.54,0.14-0.8c0.1-0.61,0.22-1.21,0.34-1.81c0.13-0.62,0.26-1.24,0.41-1.85c0.12-0.54,0.26-1.08,0.4-1.61
	c0.08-0.32,0.17-0.64,0.27-0.96c0.15-0.56,0.31-1.11,0.48-1.66c0.2-0.64,0.41-1.27,0.63-1.9c0.17-0.49,0.34-0.98,0.53-1.47
	c0.1-0.26,0.19-0.52,0.3-0.78c0.21-0.57,0.44-1.12,0.67-1.67c0.26-0.6,0.52-1.2,0.8-1.79c0.25-0.55,0.51-1.1,0.78-1.64
	c0.35-0.71,0.71-1.42,1.09-2.11c0.3-0.55,0.61-1.1,0.93-1.64c0.02-0.04,0.04-0.08,0.06-0.11c0.29-0.5,0.59-1,0.9-1.49
	c0.06-0.11,0.13-0.21,0.19-0.3c0.33-0.53,0.68-1.06,1.03-1.58c0.02-0.04,0.05-0.08,0.07-0.11c0.36-0.53,0.72-1.05,1.09-1.56
	c0.39-0.55,0.8-1.09,1.21-1.62c0.41-0.54,0.83-1.07,1.26-1.59c0.84-1.03,1.72-2.04,2.64-3.02c0.02-0.02,0.04-0.04,0.06-0.06
	c0.37-0.4,0.75-0.79,1.13-1.18c0.62-0.63,1.25-1.24,1.89-1.84c0.41-0.39,0.83-0.77,1.25-1.15c0.02-0.01,0.04-0.02,0.05-0.04
	c0.5-0.44,1.01-0.87,1.52-1.3c0.04-0.03,0.09-0.07,0.14-0.12c0.94-0.77,1.9-1.52,2.88-2.23c0.11-0.08,0.22-0.16,0.33-0.25
	c0.4-0.28,0.8-0.56,1.2-0.84c0.16-0.11,0.32-0.22,0.48-0.33c0.5-0.33,1.01-0.67,1.52-0.99c0.57-0.36,1.15-0.72,1.73-1.06
	c9.44-5.58,20.45-8.78,32.21-8.78h51.49c5.56,0,10.95,0.71,16.08,2.05c9.7,2.54,18.49,7.31,25.78,13.73v-8.14
	c-3.53-1.61-5.99-5.17-5.99-9.3c0-5.65,4.57-10.23,10.22-10.23c5.65,0,10.23,4.58,10.23,10.23c0,4.13-2.46,7.69-6,9.3v17.19
	c0.71,0.92,1.39,1.86,2.05,2.82L299.69,159.72z"/>
<g id="spaceman">
	<path fill="#CC7070" d="M232.07,58.83c0,4.13-2.46,7.69-6,9.3v59.12c0,2.31-1.87,4.19-4.19,4.19h-0.08c-2.31,0-4.19-1.88-4.19-4.19
		V68.13c-3.53-1.61-5.99-5.17-5.99-9.3c0-5.65,4.57-10.23,10.22-10.23C227.49,48.6,232.07,53.18,232.07,58.83z"/>
	<path fill="#58398C" d="M222.23,229.11c0,2.55-1.09,5.09-3.23,6.87c-12.05,9.97-27.19,15.42-42.83,15.42h-52.34
		c-7.82,0-15.51-1.36-22.76-3.97c-6.28-2.26-12.23-5.46-17.62-9.52c-0.83-0.62-1.65-1.27-2.45-1.93c-3.02-2.5-3.94-6.52-2.69-9.93
		c0.46-1.27,1.22-2.45,2.27-3.44l0.11-0.1c1.71-1.6,3.93-2.48,6.24-2.48h54.01c5,0,9.06,4.06,9.06,9.07c0-5.01,4.06-9.07,9.06-9.07
		h54.01c2.31,0,4.53,0.88,6.24,2.48l0.11,0.1c0.85,0.8,1.51,1.73,1.97,2.73c0.11,0.23,0.21,0.46,0.29,0.7
		C222.05,227.03,222.23,228.07,222.23,229.11z"/>
	<g id="ear">
		<path fill="#58398C" d="M71.88,124.6v68.53c0,3.11-2.53,5.64-5.65,5.64h-1.92c-0.77,0-1.52-0.06-2.25-0.17
			c-6.84-1.08-12.06-7-12.06-14.13v-55.38c0-6.63,4.93-12.11,11.32-12.97c0.58-0.08,1.17-0.12,1.77-0.12h0.19
			c4.6,0,8.36,3.61,8.59,8.16C71.88,124.3,71.88,124.45,71.88,124.6z"/>
		<path fill="#58398C" d="M233.75,198.77h-0.2c-3,0-5.43-2.43-5.43-5.43v-72.59c0-2.62,2.13-4.75,4.75-4.75h0.2
			c9.35,0,16.94,7.58,16.94,16.94v49.58C250,191.49,242.72,198.77,233.75,198.77z"/>
	</g>
	<path fill="#7A60C2" d="M239.17,123.9v63.55c0,3.69-0.39,7.28-1.13,10.74c-1.66,7.83-5.12,15.01-9.92,21.08
		c-1.34,1.69-2.77,3.29-4.31,4.8l-0.01,0.01c-0.69,0.68-1.39,1.33-2.12,1.96c-0.59,0.53-1.2,1.04-1.82,1.53
		c-0.34,0.27-0.68,0.54-1.03,0.8c-1.38,1.06-2.82,2.04-4.31,2.95c-0.74,0.46-1.5,0.89-2.27,1.31c-0.39,0.21-0.77,0.41-1.16,0.61
		c-0.39,0.2-0.79,0.4-1.18,0.58c-0.4,0.19-0.8,0.38-1.2,0.56c-0.4,0.18-0.81,0.35-1.22,0.52c-0.4,0.17-0.81,0.33-1.23,0.49
		l-0.01,0.01c-0.4,0.16-0.82,0.31-1.23,0.46c-0.3,0.1-0.59,0.2-0.88,0.3c-0.26,0.09-0.52,0.17-0.78,0.25
		c-2.08,0.67-4.22,1.2-6.4,1.59c-0.29,0.05-0.58,0.1-0.86,0.15c-0.51,0.08-1.02,0.16-1.53,0.22c-0.34,0.05-0.69,0.09-1.03,0.13
		c-0.57,0.06-1.14,0.12-1.71,0.16c-1.33,0.11-2.67,0.16-4.03,0.16h-75.59c-12.99,0-24.85-4.82-33.9-12.77
		c-8.05-7.08-13.86-16.62-16.25-27.45c-0.8-3.59-1.22-7.32-1.22-11.15V123.9c0-0.73,0.01-1.45,0.04-2.17
		c0.02-0.72,0.06-1.44,0.11-2.16c0.03-0.52,0.07-1.03,0.12-1.55c0.06-0.63,0.12-1.26,0.2-1.88c0-0.01,0.01-0.02,0.01-0.02
		c0.01-0.13,0.03-0.26,0.04-0.39c0.04-0.33,0.09-0.66,0.14-0.99c0.05-0.34,0.1-0.67,0.15-1.01c0.04-0.27,0.09-0.54,0.14-0.8
		c0.1-0.61,0.22-1.21,0.34-1.81c0.13-0.62,0.26-1.24,0.41-1.85c0.12-0.54,0.26-1.08,0.4-1.61c0.08-0.32,0.17-0.64,0.27-0.96
		c0.15-0.56,0.31-1.11,0.48-1.66c0.2-0.64,0.41-1.27,0.63-1.9c0.17-0.49,0.34-0.98,0.53-1.47c0.1-0.26,0.19-0.52,0.3-0.78
		c0.21-0.57,0.44-1.12,0.67-1.67c0.26-0.6,0.52-1.2,0.8-1.79c0.25-0.55,0.51-1.1,0.78-1.64c0.35-0.71,0.71-1.42,1.09-2.11
		c0.3-0.55,0.61-1.1,0.93-1.64c0.02-0.04,0.04-0.08,0.06-0.11c0.29-0.5,0.59-1,0.9-1.49c0.06-0.11,0.13-0.21,0.19-0.3
		c0.33-0.53,0.68-1.06,1.03-1.58c0.02-0.04,0.05-0.08,0.07-0.11c0.36-0.53,0.72-1.05,1.09-1.56c0.39-0.55,0.8-1.09,1.21-1.62
		c0.41-0.54,0.83-1.07,1.26-1.59c0.84-1.03,1.72-2.04,2.64-3.02c0.02-0.02,0.04-0.04,0.06-0.06c0.37-0.4,0.75-0.79,1.13-1.18
		c0.62-0.63,1.25-1.24,1.89-1.84c0.41-0.39,0.83-0.77,1.25-1.15c0.02-0.01,0.04-0.02,0.05-0.04c0.5-0.44,1.01-0.87,1.52-1.3
		c0.04-0.03,0.09-0.07,0.14-0.12c0.94-0.77,1.9-1.52,2.88-2.23c0.11-0.08,0.22-0.16,0.33-0.25c0.4-0.28,0.8-0.56,1.2-0.84
		c0.16-0.11,0.32-0.22,0.48-0.33c0.5-0.33,1.01-0.67,1.52-0.99c0.57-0.36,1.15-0.72,1.73-1.06c9.44-5.58,20.45-8.78,32.21-8.78
		h51.49c5.56,0,10.95,0.71,16.08,2.05c9.7,2.54,18.49,7.31,25.78,13.73c3.11,2.73,5.95,5.76,8.46,9.05
		c0.71,0.92,1.39,1.86,2.05,2.82c5.74,8.4,9.53,18.24,10.68,28.86C239.04,119.27,239.17,121.57,239.17,123.9z"/>
	<path id="goggle-shadow" fill="#9587D6" d="M178.05,202.38h-56.1c-20.08,0-36.35-16.28-36.35-36.35v-17.28
		c0-20.08,16.28-36.35,36.35-36.35h56.1c20.08,0,36.35,16.28,36.35,36.35v17.28C214.41,186.11,198.13,202.38,178.05,202.38z"/>
	<path id="goggle" fill="#A99AF5" d="M178.05,194.64h-56.1c-20.08,0-36.35-16.28-36.35-36.35v-17.28
		c0-20.08,16.28-36.35,36.35-36.35h56.1c20.08,0,36.35,16.28,36.35,36.35v17.28C214.41,178.37,198.13,194.64,178.05,194.64z"/>
	<path fill="#6A53A8" d="M223.8,224.08c-0.69,0.68-1.39,1.33-2.12,1.96c-0.59,0.53-1.2,1.04-1.82,1.53
		c-0.34,0.27-0.68,0.54-1.03,0.8c-1.38,1.06-2.82,2.04-4.31,2.95c-0.74,0.46-1.5,0.89-2.27,1.31c-0.39,0.21-0.77,0.41-1.16,0.61
		c-0.39,0.2-0.79,0.4-1.18,0.58c-0.4,0.19-0.8,0.38-1.2,0.56c-0.4,0.18-0.81,0.35-1.22,0.52c-0.4,0.17-0.81,0.33-1.23,0.49
		l-0.01,0.01c-0.4,0.16-0.82,0.31-1.23,0.46c-0.3,0.1-0.59,0.2-0.88,0.3c-0.26,0.09-0.52,0.17-0.78,0.25
		c-2.08,0.67-4.22,1.2-6.4,1.59c-0.29,0.05-0.58,0.1-0.86,0.15c-0.51,0.08-1.02,0.16-1.53,0.22c-0.34,0.05-0.69,0.09-1.03,0.13
		c-0.57,0.06-1.14,0.12-1.71,0.16c-1.33,0.11-2.67,0.16-4.03,0.16h-75.59c-12.99,0-24.85-4.82-33.9-12.77
		c-8.05-7.08-13.86-16.62-16.25-27.45c-0.8-3.59-1.22-7.32-1.22-11.15V123.9c0-0.73,0.01-1.45,0.04-2.17
		c0.02-0.72,0.06-1.44,0.11-2.16c0.03-0.52,0.07-1.03,0.12-1.55c0.06-0.63,0.12-1.26,0.2-1.88c0-0.01,0.01-0.02,0.01-0.02
		c0.01-0.13,0.03-0.26,0.04-0.39c0.04-0.33,0.09-0.66,0.14-0.99c0.05-0.34,0.1-0.67,0.15-1.01c0.04-0.27,0.09-0.54,0.14-0.8
		c0.1-0.61,0.22-1.21,0.34-1.81c0.13-0.62,0.26-1.24,0.41-1.85c0.12-0.54,0.26-1.08,0.4-1.61c0.08-0.32,0.17-0.64,0.27-0.96
		c0.15-0.56,0.31-1.11,0.48-1.66c0.2-0.64,0.41-1.27,0.63-1.9c0.17-0.49,0.34-0.98,0.53-1.47c0.1-0.26,0.19-0.52,0.3-0.78
		c0.21-0.57,0.44-1.12,0.67-1.67c0.26-0.6,0.52-1.2,0.8-1.79c0.25-0.55,0.51-1.1,0.78-1.64c0.35-0.71,0.71-1.42,1.09-2.11
		c0.3-0.55,0.61-1.1,0.93-1.64c0.02-0.04,0.04-0.08,0.06-0.11c0.29-0.5,0.59-1,0.9-1.49c0.06-0.11,0.13-0.21,0.19-0.3
		c0.33-0.53,0.68-1.06,1.03-1.58c0.02-0.04,0.05-0.08,0.07-0.11c0.36-0.53,0.72-1.05,1.09-1.56c0.39-0.55,0.8-1.09,1.21-1.62
		c0.41-0.54,0.83-1.07,1.26-1.59c0.85-1.03,1.73-2.04,2.64-3.02c0.02-0.02,0.04-0.04,0.06-0.06c0.37-0.4,0.75-0.79,1.13-1.18
		c0.62-0.63,1.25-1.24,1.89-1.84c0.41-0.39,0.83-0.77,1.25-1.15c0.02-0.01,0.04-0.02,0.05-0.04c0.5-0.44,1.01-0.87,1.52-1.3
		c0.04-0.03,0.09-0.07,0.14-0.12c0.94-0.77,1.9-1.51,2.88-2.23c0.11-0.08,0.22-0.16,0.33-0.25c0.4-0.28,0.8-0.56,1.2-0.84
		c0.16-0.11,0.32-0.22,0.48-0.33c0.5-0.33,1.01-0.67,1.52-0.99c0.57-0.36,1.15-0.72,1.73-1.06c-12.42,11.57-20.18,28.07-20.18,46.37
		v63.54c0,0.22,0,0.45,0.01,0.67c0.2,16.39,8.09,30.92,20.22,40.18c8.64,6.6,19.44,10.52,31.15,10.52h75.58
		c1.37,0,2.71-0.05,4.04-0.16c6.6-0.51,12.86-2.26,18.52-5.05C222.2,224.94,223.01,224.52,223.8,224.08z"/>
	<g id="light-reflect" opacity="0.2">
		<path fill="#FFFFFF" d="M198.11,136.91c-3.87,0-7-3.13-7-7c0-1.01-3.38-4.9-10.89-4.9h-25.32c-3.87,0-7-3.13-7-7s3.13-7,7-7h25.32
			c13.72,0,24.89,8.48,24.89,18.9C205.11,133.78,201.98,136.91,198.11,136.91z"/>
		<path fill="#FFFFFF" d="M198.11,158.58c-3.87,0-7-3.13-7-7v-3.85c0-3.87,3.13-7,7-7s7,3.13,7,7v3.85
			C205.11,155.44,201.98,158.58,198.11,158.58z"/>
		<path fill="#FFFFFF" d="M203.25,88.06c-1.79,0-3.58-0.68-4.95-2.05c-6.98-6.98-21.38-7.73-27.25-7.73h-40.87c-3.87,0-7-3.13-7-7
			s3.13-7,7-7h40.87c9.45,0,26.85,1.54,37.15,11.84c2.73,2.73,2.73,7.17,0,9.9C206.83,87.38,205.04,88.06,203.25,88.06z"/>
	</g>
</g>
</svg>
